<svg width="304" height="270" viewBox="0 0 304 270" fill="none" xmlns="http://www.w3.org/2000/svg">
<ellipse cx="152" cy="215.486" rx="54" ry="54.5047" fill="#B5B8C9"/>
<ellipse cx="152" cy="215.481" rx="41" ry="41.5" fill="#E1E4ED"/>
<path d="M168.282 207.318C167.791 201.128 160.84 201.761 160.84 201.761C157.906 196.588 153.323 200.335 153.323 200.335C149.801 195.266 145.387 199.963 145.387 199.963C137.774 199.142 138.069 205.365 138.069 205.365C137.89 207.344 139.142 213.464 139.142 213.464C138.013 209.937 135.564 212.865 135.564 212.865C132.551 217.512 134.818 220.055 134.818 220.055C138.893 224.831 147.577 230.563 147.577 230.563C150.722 232.364 149.391 233.97 149.391 233.97L168.41 230.828L168.847 227.221C171.738 218.477 168.282 207.318 168.282 207.318Z" fill="#8B8FAC"/>
<ellipse cx="250" cy="54.4953" rx="54" ry="54.5047" fill="#B5B8C9"/>
<ellipse cx="250" cy="54.4907" rx="41" ry="41.5" fill="#E1E4ED"/>
<path d="M241.721 52.1451L246 46.1561C244.221 45.8607 240.955 45.7953 238.281 48.4585C234.064 52.6568 232.356 61.7254 232 63.921L242.717 74.5909C244.646 74.4258 253.188 73.2906 261.42 65.0968C261.507 64.9195 263.512 63.4449 261.872 61.8129C261.09 61.0336 259.795 61.0486 258.996 61.8443C258.589 62.2499 257.956 62.2549 257.557 61.8585C257.159 61.4621 257.165 60.8315 257.572 60.4265L260.48 57.5306C261.958 56.0595 260.565 53.5771 258.502 54.1735L256.121 56.2026C255.686 56.5798 255.039 56.515 254.682 56.1029C254.313 55.678 254.392 55.0332 254.812 54.6702C263.13 47.4051 261.915 48.2798 267.267 43.2865C269.266 41.6289 266.751 38.6981 264.781 40.3756L251.835 51.9658C251.459 52.2846 250.882 52.291 250.511 51.9515C250.084 51.5836 250.074 51.0534 250.353 50.6349L259.383 36.6598C260.702 34.8805 258.105 32.9041 256.715 34.6976L243.365 53.2874C243.043 53.75 242.394 53.8568 241.952 53.5329C241.844 53.4582 241.752 53.3626 241.682 53.2517C241.612 53.1409 241.565 53.0171 241.543 52.8877C241.522 52.7582 241.527 52.6258 241.557 52.4983C241.588 52.3707 241.644 52.2506 241.722 52.1451H241.721Z" fill="#8B8FAC"/>
<ellipse cx="54" cy="54.5047" rx="54" ry="54.5047" fill="#B5B8C9"/>
<ellipse cx="54" cy="54.5" rx="41" ry="41.5" fill="#E1E4ED"/>
<path d="M70.7396 41.7012C70.4473 41.588 70.1335 41.5383 69.8198 41.5556C69.3943 41.585 69.0516 41.7549 68.8478 42.0336C67.6503 43.6868 66.6685 46.8085 65.8771 49.3177C65.5143 50.4774 65.026 52.0298 64.6736 52.7667C64.3056 50.7024 64.7214 43.1404 64.8827 40.2282L64.8849 40.1811C64.9969 38.1581 65.0118 37.8029 64.9879 37.647C64.8102 36.5372 64.3586 35.8085 63.6448 35.4827C62.9236 35.1518 61.9874 35.2988 60.978 35.8967C60.4726 36.1982 60.3322 37.2322 59.8985 41.9196L59.897 41.9402C59.658 44.5155 59.1071 50.4458 58.4299 51.4341C57.6662 50.0516 56.615 42.2013 56.161 38.803C55.8437 36.4233 55.6586 35.0569 55.5339 34.6443C55.2726 33.7795 54.1676 33.0441 53.0739 33.0029C52.1631 32.9588 51.4165 33.4148 51.0596 34.2075C50.3922 34.9392 50.6281 37.3638 51.3657 43.1073C51.7166 45.8415 52.4408 51.4871 51.9854 52.121C51.0753 52.0232 49.5142 48.4867 47.3453 41.6056C46.7361 39.6788 46.548 39.0994 46.3613 38.8456C45.9925 37.9617 44.7398 37.28 43.6169 37.3572C43.5224 37.3637 43.4284 37.3757 43.3354 37.3932C42.7479 37.508 41.4062 38.0411 41.6929 40.501C42.4843 43.911 43.3451 46.4143 44.1798 48.8448L44.197 48.8933C44.6964 50.3494 45.169 51.7246 45.608 53.2506C46.6421 56.854 46.2396 59.0896 46.2352 59.1153C46.2008 59.3448 46.1284 59.4852 46.0201 59.5345C45.9741 59.5541 45.9247 59.5653 45.8746 59.5676C45.5461 59.5897 45.0548 59.3764 44.8017 59.2367C44.2224 58.1468 41.3405 52.9535 38.729 52.2328L38.6349 52.2056L38.5401 52.2144C37.5822 52.3034 36.8782 52.66 36.4474 53.2741C35.765 54.2448 36.048 55.4817 36.1159 55.7303L36.1547 55.8186C36.1757 55.8561 38.2706 59.6169 38.5946 61.3664C38.8738 62.8666 40.32 64.4918 41.4831 65.7979L41.5309 65.8516C41.9102 66.2781 42.2372 66.648 42.4955 66.9899C45.8693 70.4559 51.2044 73.371 51.2477 73.3952C51.9137 73.8784 52.2833 74.3461 52.3228 74.7484C52.341 74.9004 52.2982 75.0535 52.2034 75.1749L52.0877 75.294L52.8253 76L66.9007 75.0263L67.5009 72.3171C69.357 64.6676 68.9695 58.1446 68.9628 58.102C68.9702 57.8615 69.4899 55.5406 69.9079 53.6653L69.9206 53.6175C70.7546 49.8817 71.7908 45.234 71.9902 43.4669C72.0768 42.7109 71.5855 42.0167 70.7396 41.7012Z" fill="#8B8FAC"/>
<path d="M126.939 50.9393C126.354 51.5251 126.354 52.4749 126.939 53.0607L136.485 62.6066C137.071 63.1924 138.021 63.1924 138.607 62.6066C139.192 62.0208 139.192 61.0711 138.607 60.4853L130.121 52L138.607 43.5147C139.192 42.9289 139.192 41.9792 138.607 41.3934C138.021 40.8076 137.071 40.8076 136.485 41.3934L126.939 50.9393ZM178 50.5L128 50.5L128 53.5L178 53.5L178 50.5Z" fill="#B5B8C9"/>
<path d="M112.653 159.581C113.473 159.701 114.234 159.134 114.354 158.314L116.307 144.956C116.427 144.136 115.859 143.375 115.039 143.255C114.22 143.135 113.458 143.702 113.338 144.522L111.603 156.396L99.7289 154.66C98.9092 154.541 98.1475 155.108 98.0277 155.928C97.9079 156.747 98.4753 157.509 99.295 157.629L112.653 159.581ZM81.7971 118.896L111.667 158.993L114.073 157.201L84.2029 117.104L81.7971 118.896Z" fill="#B5B8C9"/>
<path d="M229.202 119.815C229.099 118.992 228.35 118.409 227.528 118.512L214.131 120.18C213.309 120.283 212.726 121.032 212.828 121.854C212.931 122.677 213.68 123.26 214.502 123.157L226.41 121.674L227.894 133.582C227.996 134.404 228.746 134.987 229.568 134.885C230.39 134.783 230.973 134.033 230.871 133.211L229.202 119.815ZM198.184 160.376L228.897 120.921L226.53 119.079L195.816 158.534L198.184 160.376Z" fill="#B5B8C9"/>
<path d="M140.108 27.672C140.108 28.432 139.86 29.012 139.364 29.412C138.876 29.804 138.244 30 137.468 30H134.78C134.74 30 134.704 29.988 134.672 29.964C134.648 29.932 134.636 29.896 134.636 29.856V21.744C134.636 21.704 134.648 21.672 134.672 21.648C134.704 21.616 134.74 21.6 134.78 21.6H137.288C138.144 21.6 138.808 21.792 139.28 22.176C139.752 22.552 139.988 23.128 139.988 23.904C139.988 24.696 139.68 25.268 139.064 25.62C139.024 25.644 139.02 25.668 139.052 25.692C139.756 26.092 140.108 26.752 140.108 27.672ZM136.388 23.052C136.348 23.052 136.328 23.072 136.328 23.112V24.996C136.328 25.036 136.348 25.056 136.388 25.056H137.3C137.62 25.056 137.872 24.968 138.056 24.792C138.24 24.616 138.332 24.372 138.332 24.06C138.332 23.74 138.24 23.492 138.056 23.316C137.88 23.14 137.628 23.052 137.3 23.052H136.388ZM137.396 28.536C137.716 28.536 137.964 28.444 138.14 28.26C138.324 28.068 138.416 27.8 138.416 27.456C138.416 27.112 138.324 26.844 138.14 26.652C137.964 26.452 137.716 26.352 137.396 26.352H136.388C136.348 26.352 136.328 26.372 136.328 26.412V28.476C136.328 28.516 136.348 28.536 136.388 28.536H137.396ZM146.275 22.908C146.275 22.948 146.259 22.984 146.227 23.016C146.203 23.04 146.171 23.052 146.131 23.052H142.915C142.875 23.052 142.855 23.072 142.855 23.112V24.984C142.855 25.024 142.875 25.044 142.915 25.044H144.919C144.959 25.044 144.991 25.06 145.015 25.092C145.047 25.116 145.063 25.148 145.063 25.188V26.352C145.063 26.392 145.047 26.428 145.015 26.46C144.991 26.484 144.959 26.496 144.919 26.496H142.915C142.875 26.496 142.855 26.516 142.855 26.556V28.488C142.855 28.528 142.875 28.548 142.915 28.548H146.131C146.171 28.548 146.203 28.564 146.227 28.596C146.259 28.62 146.275 28.652 146.275 28.692V29.856C146.275 29.896 146.259 29.932 146.227 29.964C146.203 29.988 146.171 30 146.131 30H141.307C141.267 30 141.231 29.988 141.199 29.964C141.175 29.932 141.163 29.896 141.163 29.856V21.744C141.163 21.704 141.175 21.672 141.199 21.648C141.231 21.616 141.267 21.6 141.307 21.6H146.131C146.171 21.6 146.203 21.616 146.227 21.648C146.259 21.672 146.275 21.704 146.275 21.744V22.908ZM151.826 30C151.738 30 151.682 29.96 151.658 29.88L151.382 28.704C151.374 28.672 151.354 28.656 151.322 28.656H149.078C149.046 28.656 149.026 28.672 149.018 28.704L148.742 29.88C148.718 29.96 148.666 30 148.586 30H147.134C147.03 30 146.99 29.948 147.014 29.844L149.174 21.72C149.198 21.64 149.254 21.6 149.342 21.6H151.082C151.17 21.6 151.226 21.64 151.25 21.72L153.41 29.844L153.422 29.892C153.422 29.964 153.378 30 153.29 30H151.826ZM149.342 27.276C149.334 27.3 149.338 27.32 149.354 27.336C149.37 27.344 149.386 27.348 149.402 27.348H150.986C151.002 27.348 151.018 27.344 151.034 27.336C151.05 27.32 151.054 27.3 151.046 27.276L150.218 23.796C150.21 23.764 150.198 23.748 150.182 23.748C150.166 23.748 150.154 23.764 150.146 23.796L149.342 27.276ZM158.653 21.6C158.693 21.6 158.725 21.616 158.749 21.648C158.781 21.672 158.797 21.704 158.797 21.744V22.92C158.797 22.96 158.781 22.996 158.749 23.028C158.725 23.052 158.693 23.064 158.653 23.064H156.829C156.789 23.064 156.769 23.084 156.769 23.124V29.856C156.769 29.896 156.753 29.932 156.721 29.964C156.697 29.988 156.665 30 156.625 30H155.221C155.181 30 155.145 29.988 155.113 29.964C155.089 29.932 155.077 29.896 155.077 29.856V23.124C155.077 23.084 155.057 23.064 155.017 23.064H153.253C153.213 23.064 153.177 23.052 153.145 23.028C153.121 22.996 153.109 22.96 153.109 22.92V21.744C153.109 21.704 153.121 21.672 153.145 21.648C153.177 21.616 153.213 21.6 153.253 21.6H158.653ZM162.234 30.096C161.682 30.096 161.198 30 160.782 29.808C160.366 29.608 160.042 29.332 159.81 28.98C159.586 28.62 159.474 28.208 159.474 27.744V27.432C159.474 27.392 159.486 27.36 159.51 27.336C159.542 27.304 159.578 27.288 159.618 27.288H160.998C161.038 27.288 161.07 27.304 161.094 27.336C161.126 27.36 161.142 27.392 161.142 27.432V27.66C161.142 27.94 161.246 28.176 161.454 28.368C161.662 28.552 161.942 28.644 162.294 28.644C162.606 28.644 162.842 28.564 163.002 28.404C163.17 28.244 163.254 28.04 163.254 27.792C163.254 27.608 163.202 27.452 163.098 27.324C162.994 27.188 162.846 27.064 162.654 26.952C162.47 26.832 162.182 26.672 161.79 26.472C161.31 26.232 160.918 26.008 160.614 25.8C160.31 25.592 160.05 25.324 159.834 24.996C159.618 24.668 159.51 24.272 159.51 23.808C159.51 23.344 159.618 22.94 159.834 22.596C160.058 22.244 160.37 21.976 160.77 21.792C161.17 21.6 161.626 21.504 162.138 21.504C162.674 21.504 163.15 21.608 163.566 21.816C163.982 22.016 164.306 22.3 164.538 22.668C164.77 23.036 164.886 23.46 164.886 23.94V24.18C164.886 24.22 164.87 24.256 164.838 24.288C164.814 24.312 164.782 24.324 164.742 24.324H163.362C163.322 24.324 163.286 24.312 163.254 24.288C163.23 24.256 163.218 24.22 163.218 24.18V23.964C163.218 23.676 163.118 23.436 162.918 23.244C162.718 23.052 162.446 22.956 162.102 22.956C161.814 22.956 161.586 23.032 161.418 23.184C161.258 23.328 161.178 23.532 161.178 23.796C161.178 23.98 161.226 24.14 161.322 24.276C161.418 24.412 161.566 24.544 161.766 24.672C161.966 24.792 162.27 24.952 162.678 25.152L162.93 25.296C163.394 25.552 163.754 25.776 164.01 25.968C164.274 26.152 164.494 26.388 164.67 26.676C164.846 26.964 164.934 27.312 164.934 27.72C164.934 28.448 164.686 29.028 164.19 29.46C163.702 29.884 163.05 30.096 162.234 30.096Z" fill="#B5B8C9"/>
<path d="M46.108 143.672C46.108 144.432 45.86 145.012 45.364 145.412C44.876 145.804 44.244 146 43.468 146H40.78C40.74 146 40.704 145.988 40.672 145.964C40.648 145.932 40.636 145.896 40.636 145.856V137.744C40.636 137.704 40.648 137.672 40.672 137.648C40.704 137.616 40.74 137.6 40.78 137.6H43.288C44.144 137.6 44.808 137.792 45.28 138.176C45.752 138.552 45.988 139.128 45.988 139.904C45.988 140.696 45.68 141.268 45.064 141.62C45.024 141.644 45.02 141.668 45.052 141.692C45.756 142.092 46.108 142.752 46.108 143.672ZM42.388 139.052C42.348 139.052 42.328 139.072 42.328 139.112V140.996C42.328 141.036 42.348 141.056 42.388 141.056H43.3C43.62 141.056 43.872 140.968 44.056 140.792C44.24 140.616 44.332 140.372 44.332 140.06C44.332 139.74 44.24 139.492 44.056 139.316C43.88 139.14 43.628 139.052 43.3 139.052H42.388ZM43.396 144.536C43.716 144.536 43.964 144.444 44.14 144.26C44.324 144.068 44.416 143.8 44.416 143.456C44.416 143.112 44.324 142.844 44.14 142.652C43.964 142.452 43.716 142.352 43.396 142.352H42.388C42.348 142.352 42.328 142.372 42.328 142.412V144.476C42.328 144.516 42.348 144.536 42.388 144.536H43.396ZM52.2753 138.908C52.2753 138.948 52.2593 138.984 52.2273 139.016C52.2033 139.04 52.1713 139.052 52.1313 139.052H48.9153C48.8753 139.052 48.8553 139.072 48.8553 139.112V140.984C48.8553 141.024 48.8753 141.044 48.9153 141.044H50.9193C50.9593 141.044 50.9913 141.06 51.0153 141.092C51.0473 141.116 51.0633 141.148 51.0633 141.188V142.352C51.0633 142.392 51.0473 142.428 51.0153 142.46C50.9913 142.484 50.9593 142.496 50.9193 142.496H48.9153C48.8753 142.496 48.8553 142.516 48.8553 142.556V144.488C48.8553 144.528 48.8753 144.548 48.9153 144.548H52.1313C52.1713 144.548 52.2033 144.564 52.2273 144.596C52.2593 144.62 52.2753 144.652 52.2753 144.692V145.856C52.2753 145.896 52.2593 145.932 52.2273 145.964C52.2033 145.988 52.1713 146 52.1313 146H47.3073C47.2673 146 47.2313 145.988 47.1993 145.964C47.1753 145.932 47.1633 145.896 47.1633 145.856V137.744C47.1633 137.704 47.1753 137.672 47.1993 137.648C47.2313 137.616 47.2673 137.6 47.3073 137.6H52.1313C52.1713 137.6 52.2033 137.616 52.2273 137.648C52.2593 137.672 52.2753 137.704 52.2753 137.744V138.908ZM57.826 146C57.738 146 57.682 145.96 57.658 145.88L57.382 144.704C57.374 144.672 57.354 144.656 57.322 144.656H55.078C55.046 144.656 55.026 144.672 55.018 144.704L54.742 145.88C54.718 145.96 54.666 146 54.586 146H53.134C53.03 146 52.99 145.948 53.014 145.844L55.174 137.72C55.198 137.64 55.254 137.6 55.342 137.6H57.082C57.17 137.6 57.226 137.64 57.25 137.72L59.41 145.844L59.422 145.892C59.422 145.964 59.378 146 59.29 146H57.826ZM55.342 143.276C55.334 143.3 55.338 143.32 55.354 143.336C55.37 143.344 55.386 143.348 55.402 143.348H56.986C57.002 143.348 57.018 143.344 57.034 143.336C57.05 143.32 57.054 143.3 57.046 143.276L56.218 139.796C56.21 139.764 56.198 139.748 56.182 139.748C56.166 139.748 56.154 139.764 56.146 139.796L55.342 143.276ZM64.6529 137.6C64.6929 137.6 64.7249 137.616 64.7489 137.648C64.7809 137.672 64.7969 137.704 64.7969 137.744V138.92C64.7969 138.96 64.7809 138.996 64.7489 139.028C64.7249 139.052 64.6929 139.064 64.6529 139.064H62.8289C62.7889 139.064 62.7689 139.084 62.7689 139.124V145.856C62.7689 145.896 62.7529 145.932 62.7209 145.964C62.6969 145.988 62.6649 146 62.6249 146H61.2209C61.1809 146 61.1449 145.988 61.1129 145.964C61.0889 145.932 61.0769 145.896 61.0769 145.856V139.124C61.0769 139.084 61.0569 139.064 61.0169 139.064H59.2529C59.2129 139.064 59.1769 139.052 59.1449 139.028C59.1209 138.996 59.1089 138.96 59.1089 138.92V137.744C59.1089 137.704 59.1209 137.672 59.1449 137.648C59.1769 137.616 59.2129 137.6 59.2529 137.6H64.6529ZM68.2341 146.096C67.6821 146.096 67.1981 146 66.7821 145.808C66.3661 145.608 66.0421 145.332 65.8101 144.98C65.5861 144.62 65.4741 144.208 65.4741 143.744V143.432C65.4741 143.392 65.4861 143.36 65.5101 143.336C65.5421 143.304 65.5781 143.288 65.6181 143.288H66.9981C67.0381 143.288 67.0701 143.304 67.0941 143.336C67.1261 143.36 67.1421 143.392 67.1421 143.432V143.66C67.1421 143.94 67.2461 144.176 67.4541 144.368C67.6621 144.552 67.9421 144.644 68.2941 144.644C68.6061 144.644 68.8421 144.564 69.0021 144.404C69.1701 144.244 69.2541 144.04 69.2541 143.792C69.2541 143.608 69.2021 143.452 69.0981 143.324C68.9941 143.188 68.8461 143.064 68.6541 142.952C68.4701 142.832 68.1821 142.672 67.7901 142.472C67.3101 142.232 66.9181 142.008 66.6141 141.8C66.3101 141.592 66.0501 141.324 65.8341 140.996C65.6181 140.668 65.5101 140.272 65.5101 139.808C65.5101 139.344 65.6181 138.94 65.8341 138.596C66.0581 138.244 66.3701 137.976 66.7701 137.792C67.1701 137.6 67.6261 137.504 68.1381 137.504C68.6741 137.504 69.1501 137.608 69.5661 137.816C69.9821 138.016 70.3061 138.3 70.5381 138.668C70.7701 139.036 70.8861 139.46 70.8861 139.94V140.18C70.8861 140.22 70.8701 140.256 70.8381 140.288C70.8141 140.312 70.7821 140.324 70.7421 140.324H69.3621C69.3221 140.324 69.2861 140.312 69.2541 140.288C69.2301 140.256 69.2181 140.22 69.2181 140.18V139.964C69.2181 139.676 69.1181 139.436 68.9181 139.244C68.7181 139.052 68.4461 138.956 68.1021 138.956C67.8141 138.956 67.5861 139.032 67.4181 139.184C67.2581 139.328 67.1781 139.532 67.1781 139.796C67.1781 139.98 67.2261 140.14 67.3221 140.276C67.4181 140.412 67.5661 140.544 67.7661 140.672C67.9661 140.792 68.2701 140.952 68.6781 141.152L68.9301 141.296C69.3941 141.552 69.7541 141.776 70.0101 141.968C70.2741 142.152 70.4941 142.388 70.6701 142.676C70.8461 142.964 70.9341 143.312 70.9341 143.72C70.9341 144.448 70.6861 145.028 70.1901 145.46C69.7021 145.884 69.0501 146.096 68.2341 146.096Z" fill="#B5B8C9"/>
<path d="M242.108 143.672C242.108 144.432 241.86 145.012 241.364 145.412C240.876 145.804 240.244 146 239.468 146H236.78C236.74 146 236.704 145.988 236.672 145.964C236.648 145.932 236.636 145.896 236.636 145.856V137.744C236.636 137.704 236.648 137.672 236.672 137.648C236.704 137.616 236.74 137.6 236.78 137.6H239.288C240.144 137.6 240.808 137.792 241.28 138.176C241.752 138.552 241.988 139.128 241.988 139.904C241.988 140.696 241.68 141.268 241.064 141.62C241.024 141.644 241.02 141.668 241.052 141.692C241.756 142.092 242.108 142.752 242.108 143.672ZM238.388 139.052C238.348 139.052 238.328 139.072 238.328 139.112V140.996C238.328 141.036 238.348 141.056 238.388 141.056H239.3C239.62 141.056 239.872 140.968 240.056 140.792C240.24 140.616 240.332 140.372 240.332 140.06C240.332 139.74 240.24 139.492 240.056 139.316C239.88 139.14 239.628 139.052 239.3 139.052H238.388ZM239.396 144.536C239.716 144.536 239.964 144.444 240.14 144.26C240.324 144.068 240.416 143.8 240.416 143.456C240.416 143.112 240.324 142.844 240.14 142.652C239.964 142.452 239.716 142.352 239.396 142.352H238.388C238.348 142.352 238.328 142.372 238.328 142.412V144.476C238.328 144.516 238.348 144.536 238.388 144.536H239.396ZM248.275 138.908C248.275 138.948 248.259 138.984 248.227 139.016C248.203 139.04 248.171 139.052 248.131 139.052H244.915C244.875 139.052 244.855 139.072 244.855 139.112V140.984C244.855 141.024 244.875 141.044 244.915 141.044H246.919C246.959 141.044 246.991 141.06 247.015 141.092C247.047 141.116 247.063 141.148 247.063 141.188V142.352C247.063 142.392 247.047 142.428 247.015 142.46C246.991 142.484 246.959 142.496 246.919 142.496H244.915C244.875 142.496 244.855 142.516 244.855 142.556V144.488C244.855 144.528 244.875 144.548 244.915 144.548H248.131C248.171 144.548 248.203 144.564 248.227 144.596C248.259 144.62 248.275 144.652 248.275 144.692V145.856C248.275 145.896 248.259 145.932 248.227 145.964C248.203 145.988 248.171 146 248.131 146H243.307C243.267 146 243.231 145.988 243.199 145.964C243.175 145.932 243.163 145.896 243.163 145.856V137.744C243.163 137.704 243.175 137.672 243.199 137.648C243.231 137.616 243.267 137.6 243.307 137.6H248.131C248.171 137.6 248.203 137.616 248.227 137.648C248.259 137.672 248.275 137.704 248.275 137.744V138.908ZM253.826 146C253.738 146 253.682 145.96 253.658 145.88L253.382 144.704C253.374 144.672 253.354 144.656 253.322 144.656H251.078C251.046 144.656 251.026 144.672 251.018 144.704L250.742 145.88C250.718 145.96 250.666 146 250.586 146H249.134C249.03 146 248.99 145.948 249.014 145.844L251.174 137.72C251.198 137.64 251.254 137.6 251.342 137.6H253.082C253.17 137.6 253.226 137.64 253.25 137.72L255.41 145.844L255.422 145.892C255.422 145.964 255.378 146 255.29 146H253.826ZM251.342 143.276C251.334 143.3 251.338 143.32 251.354 143.336C251.37 143.344 251.386 143.348 251.402 143.348H252.986C253.002 143.348 253.018 143.344 253.034 143.336C253.05 143.32 253.054 143.3 253.046 143.276L252.218 139.796C252.21 139.764 252.198 139.748 252.182 139.748C252.166 139.748 252.154 139.764 252.146 139.796L251.342 143.276ZM260.653 137.6C260.693 137.6 260.725 137.616 260.749 137.648C260.781 137.672 260.797 137.704 260.797 137.744V138.92C260.797 138.96 260.781 138.996 260.749 139.028C260.725 139.052 260.693 139.064 260.653 139.064H258.829C258.789 139.064 258.769 139.084 258.769 139.124V145.856C258.769 145.896 258.753 145.932 258.721 145.964C258.697 145.988 258.665 146 258.625 146H257.221C257.181 146 257.145 145.988 257.113 145.964C257.089 145.932 257.077 145.896 257.077 145.856V139.124C257.077 139.084 257.057 139.064 257.017 139.064H255.253C255.213 139.064 255.177 139.052 255.145 139.028C255.121 138.996 255.109 138.96 255.109 138.92V137.744C255.109 137.704 255.121 137.672 255.145 137.648C255.177 137.616 255.213 137.6 255.253 137.6H260.653ZM264.234 146.096C263.682 146.096 263.198 146 262.782 145.808C262.366 145.608 262.042 145.332 261.81 144.98C261.586 144.62 261.474 144.208 261.474 143.744V143.432C261.474 143.392 261.486 143.36 261.51 143.336C261.542 143.304 261.578 143.288 261.618 143.288H262.998C263.038 143.288 263.07 143.304 263.094 143.336C263.126 143.36 263.142 143.392 263.142 143.432V143.66C263.142 143.94 263.246 144.176 263.454 144.368C263.662 144.552 263.942 144.644 264.294 144.644C264.606 144.644 264.842 144.564 265.002 144.404C265.17 144.244 265.254 144.04 265.254 143.792C265.254 143.608 265.202 143.452 265.098 143.324C264.994 143.188 264.846 143.064 264.654 142.952C264.47 142.832 264.182 142.672 263.79 142.472C263.31 142.232 262.918 142.008 262.614 141.8C262.31 141.592 262.05 141.324 261.834 140.996C261.618 140.668 261.51 140.272 261.51 139.808C261.51 139.344 261.618 138.94 261.834 138.596C262.058 138.244 262.37 137.976 262.77 137.792C263.17 137.6 263.626 137.504 264.138 137.504C264.674 137.504 265.15 137.608 265.566 137.816C265.982 138.016 266.306 138.3 266.538 138.668C266.77 139.036 266.886 139.46 266.886 139.94V140.18C266.886 140.22 266.87 140.256 266.838 140.288C266.814 140.312 266.782 140.324 266.742 140.324H265.362C265.322 140.324 265.286 140.312 265.254 140.288C265.23 140.256 265.218 140.22 265.218 140.18V139.964C265.218 139.676 265.118 139.436 264.918 139.244C264.718 139.052 264.446 138.956 264.102 138.956C263.814 138.956 263.586 139.032 263.418 139.184C263.258 139.328 263.178 139.532 263.178 139.796C263.178 139.98 263.226 140.14 263.322 140.276C263.418 140.412 263.566 140.544 263.766 140.672C263.966 140.792 264.27 140.952 264.678 141.152L264.93 141.296C265.394 141.552 265.754 141.776 266.01 141.968C266.274 142.152 266.494 142.388 266.67 142.676C266.846 142.964 266.934 143.312 266.934 143.72C266.934 144.448 266.686 145.028 266.19 145.46C265.702 145.884 265.05 146.096 264.234 146.096Z" fill="#B5B8C9"/>
</svg>
