<svg width="339" height="332" viewBox="0 0 339 332" fill="none" xmlns="http://www.w3.org/2000/svg">
<ellipse cx="169.5" cy="53.0678" rx="52.5" ry="53.0769" fill="#B5B8C9"/>
<ellipse cx="169.5" cy="53.0633" rx="39.8611" ry="40.4129" fill="#E1E4ED"/>
<path d="M161.451 50.7792L165.611 44.947C163.882 44.6594 160.707 44.5957 158.106 47.1891C154.007 51.2775 152.346 60.1085 152 62.2466L162.419 72.637C164.295 72.4762 172.6 71.3708 180.603 63.3916C180.687 63.219 182.637 61.7829 181.043 60.1938C180.282 59.4348 179.023 59.4494 178.246 60.2242C177.85 60.6193 177.235 60.6241 176.847 60.2381C176.46 59.8521 176.466 59.238 176.861 58.8437L179.689 56.0236C181.126 54.591 179.772 52.1736 177.766 52.7544L175.451 54.7303C175.028 55.0977 174.399 55.0346 174.052 54.6333C173.693 54.2195 173.77 53.5916 174.179 53.2382C182.265 46.1634 181.084 47.0151 186.288 42.1526C188.231 40.5385 185.786 37.6844 183.871 39.318L171.284 50.6045C170.918 50.915 170.357 50.9213 169.997 50.5907C169.581 50.2323 169.572 49.716 169.844 49.3085L178.622 35.6995C179.905 33.9668 177.38 32.0422 176.028 33.7887L163.049 51.8915C162.736 52.342 162.105 52.446 161.675 52.1306C161.571 52.0579 161.481 51.9647 161.413 51.8568C161.345 51.7489 161.299 51.6283 161.278 51.5023C161.257 51.3762 161.262 51.2473 161.292 51.1231C161.322 50.9989 161.376 50.8819 161.452 50.7792H161.451Z" fill="#8B8FAC"/>
<ellipse cx="286.5" cy="145.077" rx="52.5" ry="53.0769" fill="#B5B8C9"/>
<ellipse cx="286.5" cy="145.072" rx="39.8611" ry="40.4129" fill="#E1E4ED"/>
<path d="M302.775 132.609C302.49 132.499 302.185 132.45 301.88 132.467C301.467 132.496 301.134 132.661 300.935 132.933C299.771 134.542 298.817 137.582 298.047 140.026C297.694 141.155 297.22 142.667 296.877 143.384C296.519 141.374 296.924 134.01 297.08 131.174L297.083 131.129C297.191 129.159 297.206 128.813 297.183 128.661C297.01 127.58 296.571 126.87 295.877 126.553C295.176 126.231 294.266 126.374 293.284 126.956C292.793 127.25 292.656 128.257 292.235 132.822L292.233 132.842C292.001 135.349 291.465 141.124 290.807 142.087C290.064 140.74 289.042 133.096 288.601 129.787C288.293 127.469 288.113 126.139 287.991 125.737C287.737 124.895 286.663 124.179 285.6 124.138C284.714 124.095 283.988 124.539 283.641 125.311C282.992 126.024 283.222 128.385 283.939 133.978C284.28 136.641 284.984 142.138 284.541 142.756C283.657 142.66 282.139 139.217 280.03 132.516C279.438 130.639 279.255 130.075 279.074 129.828C278.715 128.967 277.497 128.303 276.405 128.379C276.313 128.385 276.222 128.397 276.132 128.414C275.56 128.525 274.256 129.045 274.535 131.44C275.304 134.761 276.141 137.199 276.953 139.565L276.969 139.613C277.455 141.031 277.914 142.37 278.341 143.856C279.346 147.365 278.955 149.542 278.951 149.567C278.917 149.79 278.847 149.927 278.742 149.975C278.697 149.994 278.649 150.005 278.6 150.007C278.281 150.029 277.803 149.821 277.557 149.685C276.994 148.624 274.192 143.566 271.653 142.865L271.562 142.838L271.47 142.847C270.538 142.933 269.854 143.281 269.435 143.879C268.772 144.824 269.047 146.028 269.113 146.27L269.15 146.356C269.171 146.393 271.208 150.055 271.523 151.759C271.794 153.22 273.2 154.802 274.331 156.074L274.377 156.127C274.746 156.542 275.064 156.902 275.315 157.235C278.595 160.61 283.782 163.449 283.824 163.473C284.472 163.943 284.831 164.399 284.869 164.79C284.887 164.938 284.845 165.087 284.753 165.206L284.641 165.322L285.358 166.009L299.042 165.061L299.626 162.423C301.43 154.974 301.054 148.622 301.047 148.58C301.054 148.346 301.56 146.086 301.966 144.26L301.978 144.213C302.789 140.575 303.797 136.049 303.99 134.328C304.075 133.592 303.597 132.916 302.775 132.609Z" fill="#8B8FAC"/>
<ellipse cx="52.5" cy="145.041" rx="52.5" ry="53.0769" fill="#B5B8C9"/>
<ellipse cx="52.5" cy="145.036" rx="39.8611" ry="40.4129" fill="#E1E4ED"/>
<path d="M69.7154 147.641L69.028 146.955C67.3856 145.317 64.7005 144.961 62.6956 146.11L58.4134 148.55L59.3056 129.002C59.3056 127.363 57.969 126.029 56.3241 126.029C55.9689 126.029 55.6272 126.092 55.3102 126.206L55.4169 125.157C55.4169 123.5 54.0588 122.152 52.3917 122.152C50.8496 122.152 49.5568 123.304 49.3935 124.784L46.6455 141.339C46.6096 141.564 46.2185 141.54 46.1771 141.398L42.9313 128.127C42.7544 127.522 42.3872 126.992 41.8845 126.614C41.3818 126.235 40.7704 126.03 40.1418 126.029C39.2513 126.029 38.4237 126.429 37.8693 127.126C37.5969 127.467 37.4058 127.865 37.3106 128.291C37.2154 128.717 37.2185 129.159 37.3197 129.583L37.9506 132.256C37.5907 132.228 37.2289 132.274 36.8872 132.39C36.2673 132.594 35.7404 133.013 35.4009 133.572C35.0614 134.13 34.9315 134.791 35.0345 135.436L36.9445 146.387C36.9445 150.707 37.7036 153.905 38.3417 155.825C38.7059 156.93 38.8907 158.086 38.8889 159.249C38.8889 160.273 38.7463 161.293 38.4635 162.278L36.982 167.449C36.8991 167.741 36.9581 168.055 37.1397 168.299C37.3245 168.541 37.6112 168.684 37.9163 168.684H55.4161C55.5698 168.685 55.7215 168.648 55.8585 168.579C55.9955 168.509 56.1141 168.407 56.2043 168.283C56.2945 168.158 56.3539 168.014 56.3775 167.862C56.4011 167.709 56.3883 167.554 56.3401 167.408C56.3297 167.383 55.5173 164.879 56.2867 161.474C57.2625 160.684 60.6788 157.914 61.9054 156.797C63.9334 154.95 69.4892 149.243 69.725 149.001C69.903 148.819 70.0018 148.574 70 148.319C69.9982 148.064 69.8959 147.821 69.7154 147.641Z" fill="#8B8FAC"/>
<ellipse cx="98.5" cy="278.05" rx="52.5" ry="53.0769" fill="#B5B8C9"/>
<ellipse cx="98.5" cy="278.045" rx="39.8611" ry="40.4129" fill="#E1E4ED"/>
<path d="M109.869 260.255C111.91 258.989 113.867 258.715 115.378 259.483C118.766 261.206 118.275 267.617 116.889 270.395C116.106 271.963 114.719 273.11 112.762 273.806C112.004 276.212 110.939 278.279 109.58 279.989C110.481 280.742 111.617 281.154 112.791 281.152H112.848L114.757 279.264C115.238 278.789 116.017 278.788 116.498 279.264C116.978 279.739 116.978 280.51 116.498 280.985L116.329 281.152H116.714C117.393 281.152 117.944 281.697 117.944 282.37C117.944 283.041 117.393 283.587 116.714 283.587H116.329L116.498 283.754C116.978 284.229 116.978 285 116.498 285.476C116.258 285.713 115.943 285.832 115.628 285.832C115.313 285.832 114.998 285.713 114.758 285.476L112.847 283.587H112.79C110.999 283.589 109.266 282.947 107.907 281.778C107.645 282.016 107.374 282.245 107.095 282.463C104.736 284.312 101.852 285.387 98.4807 285.681C98.9104 286.979 98.9853 288.367 98.6975 289.704L98.6849 289.761L100.155 292.078C100.333 292.358 100.393 292.698 100.323 293.022C100.254 293.347 100.059 293.631 99.7824 293.814C99.5837 293.944 99.3515 294.013 99.1141 294.014C98.9056 294.014 98.7006 293.961 98.5181 293.86C98.3356 293.759 98.1815 293.613 98.0704 293.436L97.9402 293.231L97.858 293.614C97.7996 293.893 97.6478 294.143 97.4277 294.323C97.2077 294.503 96.9327 294.602 96.6486 294.603C96.5595 294.603 96.4707 294.593 96.3837 294.574C96.061 294.501 95.7803 294.302 95.6029 294.022C95.4255 293.742 95.3658 293.404 95.4367 293.08L95.5189 292.697L95.3166 292.829C95.1798 292.918 95.0266 292.979 94.866 293.008C94.7054 293.038 94.5407 293.035 94.3813 292.999C94.2219 292.964 94.0711 292.898 93.9376 292.803C93.8042 292.709 93.6908 292.589 93.604 292.451C93.4265 292.171 93.3661 291.832 93.4358 291.507C93.5056 291.182 93.7 290.898 93.977 290.716L96.2636 289.226L96.2763 289.169C96.5251 288.013 96.3658 286.806 95.8255 285.754C94.8109 285.724 93.7985 285.639 92.7929 285.5C89.8318 285.099 88.1521 286.408 87.7077 286.818C84.2193 290.043 83.5441 295.741 83.5378 295.799C83.5036 296.104 83.3585 296.387 83.13 296.592C82.9015 296.797 82.6056 296.911 82.2987 296.911C82.0952 296.911 81.8949 296.861 81.7153 296.765C81.5356 296.67 81.3822 296.531 81.2682 296.362C81.2132 296.28 79.9002 294.315 79.3243 291.54C78.5423 287.773 79.4747 284.317 82.0212 281.546C83.5309 279.91 85.4321 278.687 87.5452 277.991L87.2879 278.058C86.6197 277.746 85.8914 277.585 85.1543 277.585H85.0974L83.1806 279.474C82.9475 279.703 82.6336 279.831 82.3069 279.83C81.9908 279.83 81.6747 279.711 81.4332 279.474C81.3186 279.362 81.2276 279.228 81.1654 279.08C81.1032 278.932 81.0712 278.774 81.0712 278.613C81.0712 278.453 81.1032 278.294 81.1654 278.146C81.2276 277.998 81.3186 277.864 81.4332 277.752L81.6027 277.585H81.217C80.5343 277.585 79.9817 277.041 79.9817 276.368C79.9817 275.696 80.5349 275.151 81.217 275.151H81.6027L81.4332 274.984C81.3185 274.872 81.2274 274.738 81.1652 274.59C81.1029 274.442 81.0709 274.283 81.0709 274.123C81.0709 273.962 81.1029 273.803 81.1652 273.655C81.2274 273.508 81.3185 273.374 81.4332 273.262C81.9156 272.787 82.6976 272.787 83.1806 273.262L85.0974 275.15H85.1543C86.1794 275.148 87.1941 275.356 88.1358 275.762C89.0775 276.168 89.9263 276.763 90.6296 277.51L90.4924 277.369C91.6187 277.256 92.7543 277.276 93.8759 277.429C97.0026 277.853 99.5592 277.417 101.534 276.129C100.421 274.749 99.8163 273.028 99.8203 271.254V271.195L97.9313 269.241C97.7024 269.002 97.5747 268.683 97.5747 268.351C97.5747 268.019 97.7024 267.7 97.9313 267.461C98.0426 267.344 98.1763 267.251 98.3243 267.188C98.4724 267.125 98.6317 267.092 98.7927 267.092C98.9537 267.092 99.113 267.125 99.261 267.188C99.4091 267.251 99.5428 267.344 99.654 267.461L99.8216 267.634V267.24C99.8216 266.544 100.366 265.981 101.039 265.981C101.712 265.981 102.257 266.544 102.257 267.24V267.633L102.425 267.461C102.536 267.344 102.67 267.251 102.818 267.188C102.966 267.125 103.125 267.092 103.286 267.092C103.447 267.092 103.607 267.125 103.755 267.188C103.903 267.251 104.036 267.344 104.148 267.461C104.872 268.21 104.35 269.033 104.148 269.241L102.257 271.195V271.253C102.257 272.442 102.659 273.579 103.377 274.481C104.27 273.413 104.971 272.07 105.479 270.454C105.108 269.425 104.531 266.988 106.002 264.225C106.774 262.778 108.255 261.257 109.869 260.255Z" fill="#8B8FAC"/>
<ellipse cx="239.5" cy="278.059" rx="52.5" ry="53.0769" fill="#B5B8C9"/>
<ellipse cx="239.5" cy="278.054" rx="39.8611" ry="40.4129" fill="#E1E4ED"/>
<path d="M255.329 270.105C254.852 264.077 248.094 264.693 248.094 264.693C245.242 259.656 240.786 263.304 240.786 263.304C237.362 258.368 233.07 262.943 233.07 262.943C225.669 262.143 225.956 268.203 225.956 268.203C225.782 270.13 226.999 276.09 226.999 276.09C225.901 272.655 223.52 275.506 223.52 275.506C220.592 280.031 222.796 282.508 222.796 282.508C226.757 287.159 235.2 292.74 235.2 292.74C238.257 294.494 236.964 296.059 236.964 296.059L255.454 292.999L255.879 289.486C258.69 280.972 255.329 270.105 255.329 270.105Z" fill="#8B8FAC"/>
<path d="M61.108 61.672C61.108 62.432 60.86 63.012 60.364 63.412C59.876 63.804 59.244 64 58.468 64H55.78C55.74 64 55.704 63.988 55.672 63.964C55.648 63.932 55.636 63.896 55.636 63.856V55.744C55.636 55.704 55.648 55.672 55.672 55.648C55.704 55.616 55.74 55.6 55.78 55.6H58.288C59.144 55.6 59.808 55.792 60.28 56.176C60.752 56.552 60.988 57.128 60.988 57.904C60.988 58.696 60.68 59.268 60.064 59.62C60.024 59.644 60.02 59.668 60.052 59.692C60.756 60.092 61.108 60.752 61.108 61.672ZM57.388 57.052C57.348 57.052 57.328 57.072 57.328 57.112V58.996C57.328 59.036 57.348 59.056 57.388 59.056H58.3C58.62 59.056 58.872 58.968 59.056 58.792C59.24 58.616 59.332 58.372 59.332 58.06C59.332 57.74 59.24 57.492 59.056 57.316C58.88 57.14 58.628 57.052 58.3 57.052H57.388ZM58.396 62.536C58.716 62.536 58.964 62.444 59.14 62.26C59.324 62.068 59.416 61.8 59.416 61.456C59.416 61.112 59.324 60.844 59.14 60.652C58.964 60.452 58.716 60.352 58.396 60.352H57.388C57.348 60.352 57.328 60.372 57.328 60.412V62.476C57.328 62.516 57.348 62.536 57.388 62.536H58.396ZM67.2753 56.908C67.2753 56.948 67.2593 56.984 67.2273 57.016C67.2033 57.04 67.1713 57.052 67.1313 57.052H63.9153C63.8753 57.052 63.8553 57.072 63.8553 57.112V58.984C63.8553 59.024 63.8753 59.044 63.9153 59.044H65.9193C65.9593 59.044 65.9913 59.06 66.0153 59.092C66.0473 59.116 66.0633 59.148 66.0633 59.188V60.352C66.0633 60.392 66.0473 60.428 66.0153 60.46C65.9913 60.484 65.9593 60.496 65.9193 60.496H63.9153C63.8753 60.496 63.8553 60.516 63.8553 60.556V62.488C63.8553 62.528 63.8753 62.548 63.9153 62.548H67.1313C67.1713 62.548 67.2033 62.564 67.2273 62.596C67.2593 62.62 67.2753 62.652 67.2753 62.692V63.856C67.2753 63.896 67.2593 63.932 67.2273 63.964C67.2033 63.988 67.1713 64 67.1313 64H62.3073C62.2673 64 62.2313 63.988 62.1993 63.964C62.1753 63.932 62.1633 63.896 62.1633 63.856V55.744C62.1633 55.704 62.1753 55.672 62.1993 55.648C62.2313 55.616 62.2673 55.6 62.3073 55.6H67.1313C67.1713 55.6 67.2033 55.616 67.2273 55.648C67.2593 55.672 67.2753 55.704 67.2753 55.744V56.908ZM72.826 64C72.738 64 72.682 63.96 72.658 63.88L72.382 62.704C72.374 62.672 72.354 62.656 72.322 62.656H70.078C70.046 62.656 70.026 62.672 70.018 62.704L69.742 63.88C69.718 63.96 69.666 64 69.586 64H68.134C68.03 64 67.99 63.948 68.014 63.844L70.174 55.72C70.198 55.64 70.254 55.6 70.342 55.6H72.082C72.17 55.6 72.226 55.64 72.25 55.72L74.41 63.844L74.422 63.892C74.422 63.964 74.378 64 74.29 64H72.826ZM70.342 61.276C70.334 61.3 70.338 61.32 70.354 61.336C70.37 61.344 70.386 61.348 70.402 61.348H71.986C72.002 61.348 72.018 61.344 72.034 61.336C72.05 61.32 72.054 61.3 72.046 61.276L71.218 57.796C71.21 57.764 71.198 57.748 71.182 57.748C71.166 57.748 71.154 57.764 71.146 57.796L70.342 61.276ZM79.6529 55.6C79.6929 55.6 79.7249 55.616 79.7489 55.648C79.7809 55.672 79.7969 55.704 79.7969 55.744V56.92C79.7969 56.96 79.7809 56.996 79.7489 57.028C79.7249 57.052 79.6929 57.064 79.6529 57.064H77.8289C77.7889 57.064 77.7689 57.084 77.7689 57.124V63.856C77.7689 63.896 77.7529 63.932 77.7209 63.964C77.6969 63.988 77.6649 64 77.6249 64H76.2209C76.1809 64 76.1449 63.988 76.1129 63.964C76.0889 63.932 76.0769 63.896 76.0769 63.856V57.124C76.0769 57.084 76.0569 57.064 76.0169 57.064H74.2529C74.2129 57.064 74.1769 57.052 74.1449 57.028C74.1209 56.996 74.1089 56.96 74.1089 56.92V55.744C74.1089 55.704 74.1209 55.672 74.1449 55.648C74.1769 55.616 74.2129 55.6 74.2529 55.6H79.6529ZM83.2341 64.096C82.6821 64.096 82.1981 64 81.7821 63.808C81.3661 63.608 81.0421 63.332 80.8101 62.98C80.5861 62.62 80.4741 62.208 80.4741 61.744V61.432C80.4741 61.392 80.4861 61.36 80.5101 61.336C80.5421 61.304 80.5781 61.288 80.6181 61.288H81.9981C82.0381 61.288 82.0701 61.304 82.0941 61.336C82.1261 61.36 82.1421 61.392 82.1421 61.432V61.66C82.1421 61.94 82.2461 62.176 82.4541 62.368C82.6621 62.552 82.9421 62.644 83.2941 62.644C83.6061 62.644 83.8421 62.564 84.0021 62.404C84.1701 62.244 84.2541 62.04 84.2541 61.792C84.2541 61.608 84.2021 61.452 84.0981 61.324C83.9941 61.188 83.8461 61.064 83.6541 60.952C83.4701 60.832 83.1821 60.672 82.7901 60.472C82.3101 60.232 81.9181 60.008 81.6141 59.8C81.3101 59.592 81.0501 59.324 80.8341 58.996C80.6181 58.668 80.5101 58.272 80.5101 57.808C80.5101 57.344 80.6181 56.94 80.8341 56.596C81.0581 56.244 81.3701 55.976 81.7701 55.792C82.1701 55.6 82.6261 55.504 83.1381 55.504C83.6741 55.504 84.1501 55.608 84.5661 55.816C84.9821 56.016 85.3061 56.3 85.5381 56.668C85.7701 57.036 85.8861 57.46 85.8861 57.94V58.18C85.8861 58.22 85.8701 58.256 85.8381 58.288C85.8141 58.312 85.7821 58.324 85.7421 58.324H84.3621C84.3221 58.324 84.2861 58.312 84.2541 58.288C84.2301 58.256 84.2181 58.22 84.2181 58.18V57.964C84.2181 57.676 84.1181 57.436 83.9181 57.244C83.7181 57.052 83.4461 56.956 83.1021 56.956C82.8141 56.956 82.5861 57.032 82.4181 57.184C82.2581 57.328 82.1781 57.532 82.1781 57.796C82.1781 57.98 82.2261 58.14 82.3221 58.276C82.4181 58.412 82.5661 58.544 82.7661 58.672C82.9661 58.792 83.2701 58.952 83.6781 59.152L83.9301 59.296C84.3941 59.552 84.7541 59.776 85.0101 59.968C85.2741 60.152 85.4941 60.388 85.6701 60.676C85.8461 60.964 85.9341 61.312 85.9341 61.72C85.9341 62.448 85.6861 63.028 85.1901 63.46C84.7021 63.884 84.0501 64.096 83.2341 64.096Z" fill="#B5B8C9"/>
<path d="M7.108 223.672C7.108 224.432 6.86 225.012 6.364 225.412C5.876 225.804 5.244 226 4.468 226H1.78C1.74 226 1.704 225.988 1.672 225.964C1.648 225.932 1.636 225.896 1.636 225.856V217.744C1.636 217.704 1.648 217.672 1.672 217.648C1.704 217.616 1.74 217.6 1.78 217.6H4.288C5.144 217.6 5.808 217.792 6.28 218.176C6.752 218.552 6.988 219.128 6.988 219.904C6.988 220.696 6.68 221.268 6.064 221.62C6.024 221.644 6.02 221.668 6.052 221.692C6.756 222.092 7.108 222.752 7.108 223.672ZM3.388 219.052C3.348 219.052 3.328 219.072 3.328 219.112V220.996C3.328 221.036 3.348 221.056 3.388 221.056H4.3C4.62 221.056 4.872 220.968 5.056 220.792C5.24 220.616 5.332 220.372 5.332 220.06C5.332 219.74 5.24 219.492 5.056 219.316C4.88 219.14 4.628 219.052 4.3 219.052H3.388ZM4.396 224.536C4.716 224.536 4.964 224.444 5.14 224.26C5.324 224.068 5.416 223.8 5.416 223.456C5.416 223.112 5.324 222.844 5.14 222.652C4.964 222.452 4.716 222.352 4.396 222.352H3.388C3.348 222.352 3.328 222.372 3.328 222.412V224.476C3.328 224.516 3.348 224.536 3.388 224.536H4.396ZM13.2753 218.908C13.2753 218.948 13.2593 218.984 13.2273 219.016C13.2033 219.04 13.1713 219.052 13.1313 219.052H9.91534C9.87534 219.052 9.85534 219.072 9.85534 219.112V220.984C9.85534 221.024 9.87534 221.044 9.91534 221.044H11.9193C11.9593 221.044 11.9913 221.06 12.0153 221.092C12.0473 221.116 12.0633 221.148 12.0633 221.188V222.352C12.0633 222.392 12.0473 222.428 12.0153 222.46C11.9913 222.484 11.9593 222.496 11.9193 222.496H9.91534C9.87534 222.496 9.85534 222.516 9.85534 222.556V224.488C9.85534 224.528 9.87534 224.548 9.91534 224.548H13.1313C13.1713 224.548 13.2033 224.564 13.2273 224.596C13.2593 224.62 13.2753 224.652 13.2753 224.692V225.856C13.2753 225.896 13.2593 225.932 13.2273 225.964C13.2033 225.988 13.1713 226 13.1313 226H8.30734C8.26734 226 8.23134 225.988 8.19934 225.964C8.17534 225.932 8.16334 225.896 8.16334 225.856V217.744C8.16334 217.704 8.17534 217.672 8.19934 217.648C8.23134 217.616 8.26734 217.6 8.30734 217.6H13.1313C13.1713 217.6 13.2033 217.616 13.2273 217.648C13.2593 217.672 13.2753 217.704 13.2753 217.744V218.908ZM18.826 226C18.738 226 18.682 225.96 18.658 225.88L18.382 224.704C18.374 224.672 18.354 224.656 18.322 224.656H16.078C16.046 224.656 16.026 224.672 16.018 224.704L15.742 225.88C15.718 225.96 15.666 226 15.586 226H14.134C14.03 226 13.99 225.948 14.014 225.844L16.174 217.72C16.198 217.64 16.254 217.6 16.342 217.6H18.082C18.17 217.6 18.226 217.64 18.25 217.72L20.41 225.844L20.422 225.892C20.422 225.964 20.378 226 20.29 226H18.826ZM16.342 223.276C16.334 223.3 16.338 223.32 16.354 223.336C16.37 223.344 16.386 223.348 16.402 223.348H17.986C18.002 223.348 18.018 223.344 18.034 223.336C18.05 223.32 18.054 223.3 18.046 223.276L17.218 219.796C17.21 219.764 17.198 219.748 17.182 219.748C17.166 219.748 17.154 219.764 17.146 219.796L16.342 223.276ZM25.6529 217.6C25.6929 217.6 25.7249 217.616 25.7489 217.648C25.7809 217.672 25.7969 217.704 25.7969 217.744V218.92C25.7969 218.96 25.7809 218.996 25.7489 219.028C25.7249 219.052 25.6929 219.064 25.6529 219.064H23.8289C23.7889 219.064 23.7689 219.084 23.7689 219.124V225.856C23.7689 225.896 23.7529 225.932 23.7209 225.964C23.6969 225.988 23.6649 226 23.6249 226H22.2209C22.1809 226 22.1449 225.988 22.1129 225.964C22.0889 225.932 22.0769 225.896 22.0769 225.856V219.124C22.0769 219.084 22.0569 219.064 22.0169 219.064H20.2529C20.2129 219.064 20.1769 219.052 20.1449 219.028C20.1209 218.996 20.1089 218.96 20.1089 218.92V217.744C20.1089 217.704 20.1209 217.672 20.1449 217.648C20.1769 217.616 20.2129 217.6 20.2529 217.6H25.6529ZM29.2341 226.096C28.6821 226.096 28.1981 226 27.7821 225.808C27.3661 225.608 27.0421 225.332 26.8101 224.98C26.5861 224.62 26.4741 224.208 26.4741 223.744V223.432C26.4741 223.392 26.4861 223.36 26.5101 223.336C26.5421 223.304 26.5781 223.288 26.6181 223.288H27.9981C28.0381 223.288 28.0701 223.304 28.0941 223.336C28.1261 223.36 28.1421 223.392 28.1421 223.432V223.66C28.1421 223.94 28.2461 224.176 28.4541 224.368C28.6621 224.552 28.9421 224.644 29.2941 224.644C29.6061 224.644 29.8421 224.564 30.0021 224.404C30.1701 224.244 30.2541 224.04 30.2541 223.792C30.2541 223.608 30.2021 223.452 30.0981 223.324C29.9941 223.188 29.8461 223.064 29.6541 222.952C29.4701 222.832 29.1821 222.672 28.7901 222.472C28.3101 222.232 27.9181 222.008 27.6141 221.8C27.3101 221.592 27.0501 221.324 26.8341 220.996C26.6181 220.668 26.5101 220.272 26.5101 219.808C26.5101 219.344 26.6181 218.94 26.8341 218.596C27.0581 218.244 27.3701 217.976 27.7701 217.792C28.1701 217.6 28.6261 217.504 29.1381 217.504C29.6741 217.504 30.1501 217.608 30.5661 217.816C30.9821 218.016 31.3061 218.3 31.5381 218.668C31.7701 219.036 31.8861 219.46 31.8861 219.94V220.18C31.8861 220.22 31.8701 220.256 31.8381 220.288C31.8141 220.312 31.7821 220.324 31.7421 220.324H30.3621C30.3221 220.324 30.2861 220.312 30.2541 220.288C30.2301 220.256 30.2181 220.22 30.2181 220.18V219.964C30.2181 219.676 30.1181 219.436 29.9181 219.244C29.7181 219.052 29.4461 218.956 29.1021 218.956C28.8141 218.956 28.5861 219.032 28.4181 219.184C28.2581 219.328 28.1781 219.532 28.1781 219.796C28.1781 219.98 28.2261 220.14 28.3221 220.276C28.4181 220.412 28.5661 220.544 28.7661 220.672C28.9661 220.792 29.2701 220.952 29.6781 221.152L29.9301 221.296C30.3941 221.552 30.7541 221.776 31.0101 221.968C31.2741 222.152 31.4941 222.388 31.6701 222.676C31.8461 222.964 31.9341 223.312 31.9341 223.72C31.9341 224.448 31.6861 225.028 31.1901 225.46C30.7021 225.884 30.0501 226.096 29.2341 226.096Z" fill="#B5B8C9"/>
<path d="M311.108 223.672C311.108 224.432 310.86 225.012 310.364 225.412C309.876 225.804 309.244 226 308.468 226H305.78C305.74 226 305.704 225.988 305.672 225.964C305.648 225.932 305.636 225.896 305.636 225.856V217.744C305.636 217.704 305.648 217.672 305.672 217.648C305.704 217.616 305.74 217.6 305.78 217.6H308.288C309.144 217.6 309.808 217.792 310.28 218.176C310.752 218.552 310.988 219.128 310.988 219.904C310.988 220.696 310.68 221.268 310.064 221.62C310.024 221.644 310.02 221.668 310.052 221.692C310.756 222.092 311.108 222.752 311.108 223.672ZM307.388 219.052C307.348 219.052 307.328 219.072 307.328 219.112V220.996C307.328 221.036 307.348 221.056 307.388 221.056H308.3C308.62 221.056 308.872 220.968 309.056 220.792C309.24 220.616 309.332 220.372 309.332 220.06C309.332 219.74 309.24 219.492 309.056 219.316C308.88 219.14 308.628 219.052 308.3 219.052H307.388ZM308.396 224.536C308.716 224.536 308.964 224.444 309.14 224.26C309.324 224.068 309.416 223.8 309.416 223.456C309.416 223.112 309.324 222.844 309.14 222.652C308.964 222.452 308.716 222.352 308.396 222.352H307.388C307.348 222.352 307.328 222.372 307.328 222.412V224.476C307.328 224.516 307.348 224.536 307.388 224.536H308.396ZM317.275 218.908C317.275 218.948 317.259 218.984 317.227 219.016C317.203 219.04 317.171 219.052 317.131 219.052H313.915C313.875 219.052 313.855 219.072 313.855 219.112V220.984C313.855 221.024 313.875 221.044 313.915 221.044H315.919C315.959 221.044 315.991 221.06 316.015 221.092C316.047 221.116 316.063 221.148 316.063 221.188V222.352C316.063 222.392 316.047 222.428 316.015 222.46C315.991 222.484 315.959 222.496 315.919 222.496H313.915C313.875 222.496 313.855 222.516 313.855 222.556V224.488C313.855 224.528 313.875 224.548 313.915 224.548H317.131C317.171 224.548 317.203 224.564 317.227 224.596C317.259 224.62 317.275 224.652 317.275 224.692V225.856C317.275 225.896 317.259 225.932 317.227 225.964C317.203 225.988 317.171 226 317.131 226H312.307C312.267 226 312.231 225.988 312.199 225.964C312.175 225.932 312.163 225.896 312.163 225.856V217.744C312.163 217.704 312.175 217.672 312.199 217.648C312.231 217.616 312.267 217.6 312.307 217.6H317.131C317.171 217.6 317.203 217.616 317.227 217.648C317.259 217.672 317.275 217.704 317.275 217.744V218.908ZM322.826 226C322.738 226 322.682 225.96 322.658 225.88L322.382 224.704C322.374 224.672 322.354 224.656 322.322 224.656H320.078C320.046 224.656 320.026 224.672 320.018 224.704L319.742 225.88C319.718 225.96 319.666 226 319.586 226H318.134C318.03 226 317.99 225.948 318.014 225.844L320.174 217.72C320.198 217.64 320.254 217.6 320.342 217.6H322.082C322.17 217.6 322.226 217.64 322.25 217.72L324.41 225.844L324.422 225.892C324.422 225.964 324.378 226 324.29 226H322.826ZM320.342 223.276C320.334 223.3 320.338 223.32 320.354 223.336C320.37 223.344 320.386 223.348 320.402 223.348H321.986C322.002 223.348 322.018 223.344 322.034 223.336C322.05 223.32 322.054 223.3 322.046 223.276L321.218 219.796C321.21 219.764 321.198 219.748 321.182 219.748C321.166 219.748 321.154 219.764 321.146 219.796L320.342 223.276ZM329.653 217.6C329.693 217.6 329.725 217.616 329.749 217.648C329.781 217.672 329.797 217.704 329.797 217.744V218.92C329.797 218.96 329.781 218.996 329.749 219.028C329.725 219.052 329.693 219.064 329.653 219.064H327.829C327.789 219.064 327.769 219.084 327.769 219.124V225.856C327.769 225.896 327.753 225.932 327.721 225.964C327.697 225.988 327.665 226 327.625 226H326.221C326.181 226 326.145 225.988 326.113 225.964C326.089 225.932 326.077 225.896 326.077 225.856V219.124C326.077 219.084 326.057 219.064 326.017 219.064H324.253C324.213 219.064 324.177 219.052 324.145 219.028C324.121 218.996 324.109 218.96 324.109 218.92V217.744C324.109 217.704 324.121 217.672 324.145 217.648C324.177 217.616 324.213 217.6 324.253 217.6H329.653ZM333.234 226.096C332.682 226.096 332.198 226 331.782 225.808C331.366 225.608 331.042 225.332 330.81 224.98C330.586 224.62 330.474 224.208 330.474 223.744V223.432C330.474 223.392 330.486 223.36 330.51 223.336C330.542 223.304 330.578 223.288 330.618 223.288H331.998C332.038 223.288 332.07 223.304 332.094 223.336C332.126 223.36 332.142 223.392 332.142 223.432V223.66C332.142 223.94 332.246 224.176 332.454 224.368C332.662 224.552 332.942 224.644 333.294 224.644C333.606 224.644 333.842 224.564 334.002 224.404C334.17 224.244 334.254 224.04 334.254 223.792C334.254 223.608 334.202 223.452 334.098 223.324C333.994 223.188 333.846 223.064 333.654 222.952C333.47 222.832 333.182 222.672 332.79 222.472C332.31 222.232 331.918 222.008 331.614 221.8C331.31 221.592 331.05 221.324 330.834 220.996C330.618 220.668 330.51 220.272 330.51 219.808C330.51 219.344 330.618 218.94 330.834 218.596C331.058 218.244 331.37 217.976 331.77 217.792C332.17 217.6 332.626 217.504 333.138 217.504C333.674 217.504 334.15 217.608 334.566 217.816C334.982 218.016 335.306 218.3 335.538 218.668C335.77 219.036 335.886 219.46 335.886 219.94V220.18C335.886 220.22 335.87 220.256 335.838 220.288C335.814 220.312 335.782 220.324 335.742 220.324H334.362C334.322 220.324 334.286 220.312 334.254 220.288C334.23 220.256 334.218 220.22 334.218 220.18V219.964C334.218 219.676 334.118 219.436 333.918 219.244C333.718 219.052 333.446 218.956 333.102 218.956C332.814 218.956 332.586 219.032 332.418 219.184C332.258 219.328 332.178 219.532 332.178 219.796C332.178 219.98 332.226 220.14 332.322 220.276C332.418 220.412 332.566 220.544 332.766 220.672C332.966 220.792 333.27 220.952 333.678 221.152L333.93 221.296C334.394 221.552 334.754 221.776 335.01 221.968C335.274 222.152 335.494 222.388 335.67 222.676C335.846 222.964 335.934 223.312 335.934 223.72C335.934 224.448 335.686 225.028 335.19 225.46C334.702 225.884 334.05 226.096 333.234 226.096Z" fill="#B5B8C9"/>
<path d="M159.108 326.672C159.108 327.432 158.86 328.012 158.364 328.412C157.876 328.804 157.244 329 156.468 329H153.78C153.74 329 153.704 328.988 153.672 328.964C153.648 328.932 153.636 328.896 153.636 328.856V320.744C153.636 320.704 153.648 320.672 153.672 320.648C153.704 320.616 153.74 320.6 153.78 320.6H156.288C157.144 320.6 157.808 320.792 158.28 321.176C158.752 321.552 158.988 322.128 158.988 322.904C158.988 323.696 158.68 324.268 158.064 324.62C158.024 324.644 158.02 324.668 158.052 324.692C158.756 325.092 159.108 325.752 159.108 326.672ZM155.388 322.052C155.348 322.052 155.328 322.072 155.328 322.112V323.996C155.328 324.036 155.348 324.056 155.388 324.056H156.3C156.62 324.056 156.872 323.968 157.056 323.792C157.24 323.616 157.332 323.372 157.332 323.06C157.332 322.74 157.24 322.492 157.056 322.316C156.88 322.14 156.628 322.052 156.3 322.052H155.388ZM156.396 327.536C156.716 327.536 156.964 327.444 157.14 327.26C157.324 327.068 157.416 326.8 157.416 326.456C157.416 326.112 157.324 325.844 157.14 325.652C156.964 325.452 156.716 325.352 156.396 325.352H155.388C155.348 325.352 155.328 325.372 155.328 325.412V327.476C155.328 327.516 155.348 327.536 155.388 327.536H156.396ZM165.275 321.908C165.275 321.948 165.259 321.984 165.227 322.016C165.203 322.04 165.171 322.052 165.131 322.052H161.915C161.875 322.052 161.855 322.072 161.855 322.112V323.984C161.855 324.024 161.875 324.044 161.915 324.044H163.919C163.959 324.044 163.991 324.06 164.015 324.092C164.047 324.116 164.063 324.148 164.063 324.188V325.352C164.063 325.392 164.047 325.428 164.015 325.46C163.991 325.484 163.959 325.496 163.919 325.496H161.915C161.875 325.496 161.855 325.516 161.855 325.556V327.488C161.855 327.528 161.875 327.548 161.915 327.548H165.131C165.171 327.548 165.203 327.564 165.227 327.596C165.259 327.62 165.275 327.652 165.275 327.692V328.856C165.275 328.896 165.259 328.932 165.227 328.964C165.203 328.988 165.171 329 165.131 329H160.307C160.267 329 160.231 328.988 160.199 328.964C160.175 328.932 160.163 328.896 160.163 328.856V320.744C160.163 320.704 160.175 320.672 160.199 320.648C160.231 320.616 160.267 320.6 160.307 320.6H165.131C165.171 320.6 165.203 320.616 165.227 320.648C165.259 320.672 165.275 320.704 165.275 320.744V321.908ZM170.826 329C170.738 329 170.682 328.96 170.658 328.88L170.382 327.704C170.374 327.672 170.354 327.656 170.322 327.656H168.078C168.046 327.656 168.026 327.672 168.018 327.704L167.742 328.88C167.718 328.96 167.666 329 167.586 329H166.134C166.03 329 165.99 328.948 166.014 328.844L168.174 320.72C168.198 320.64 168.254 320.6 168.342 320.6H170.082C170.17 320.6 170.226 320.64 170.25 320.72L172.41 328.844L172.422 328.892C172.422 328.964 172.378 329 172.29 329H170.826ZM168.342 326.276C168.334 326.3 168.338 326.32 168.354 326.336C168.37 326.344 168.386 326.348 168.402 326.348H169.986C170.002 326.348 170.018 326.344 170.034 326.336C170.05 326.32 170.054 326.3 170.046 326.276L169.218 322.796C169.21 322.764 169.198 322.748 169.182 322.748C169.166 322.748 169.154 322.764 169.146 322.796L168.342 326.276ZM177.653 320.6C177.693 320.6 177.725 320.616 177.749 320.648C177.781 320.672 177.797 320.704 177.797 320.744V321.92C177.797 321.96 177.781 321.996 177.749 322.028C177.725 322.052 177.693 322.064 177.653 322.064H175.829C175.789 322.064 175.769 322.084 175.769 322.124V328.856C175.769 328.896 175.753 328.932 175.721 328.964C175.697 328.988 175.665 329 175.625 329H174.221C174.181 329 174.145 328.988 174.113 328.964C174.089 328.932 174.077 328.896 174.077 328.856V322.124C174.077 322.084 174.057 322.064 174.017 322.064H172.253C172.213 322.064 172.177 322.052 172.145 322.028C172.121 321.996 172.109 321.96 172.109 321.92V320.744C172.109 320.704 172.121 320.672 172.145 320.648C172.177 320.616 172.213 320.6 172.253 320.6H177.653ZM181.234 329.096C180.682 329.096 180.198 329 179.782 328.808C179.366 328.608 179.042 328.332 178.81 327.98C178.586 327.62 178.474 327.208 178.474 326.744V326.432C178.474 326.392 178.486 326.36 178.51 326.336C178.542 326.304 178.578 326.288 178.618 326.288H179.998C180.038 326.288 180.07 326.304 180.094 326.336C180.126 326.36 180.142 326.392 180.142 326.432V326.66C180.142 326.94 180.246 327.176 180.454 327.368C180.662 327.552 180.942 327.644 181.294 327.644C181.606 327.644 181.842 327.564 182.002 327.404C182.17 327.244 182.254 327.04 182.254 326.792C182.254 326.608 182.202 326.452 182.098 326.324C181.994 326.188 181.846 326.064 181.654 325.952C181.47 325.832 181.182 325.672 180.79 325.472C180.31 325.232 179.918 325.008 179.614 324.8C179.31 324.592 179.05 324.324 178.834 323.996C178.618 323.668 178.51 323.272 178.51 322.808C178.51 322.344 178.618 321.94 178.834 321.596C179.058 321.244 179.37 320.976 179.77 320.792C180.17 320.6 180.626 320.504 181.138 320.504C181.674 320.504 182.15 320.608 182.566 320.816C182.982 321.016 183.306 321.3 183.538 321.668C183.77 322.036 183.886 322.46 183.886 322.94V323.18C183.886 323.22 183.87 323.256 183.838 323.288C183.814 323.312 183.782 323.324 183.742 323.324H182.362C182.322 323.324 182.286 323.312 182.254 323.288C182.23 323.256 182.218 323.22 182.218 323.18V322.964C182.218 322.676 182.118 322.436 181.918 322.244C181.718 322.052 181.446 321.956 181.102 321.956C180.814 321.956 180.586 322.032 180.418 322.184C180.258 322.328 180.178 322.532 180.178 322.796C180.178 322.98 180.226 323.14 180.322 323.276C180.418 323.412 180.566 323.544 180.766 323.672C180.966 323.792 181.27 323.952 181.678 324.152L181.93 324.296C182.394 324.552 182.754 324.776 183.01 324.968C183.274 325.152 183.494 325.388 183.67 325.676C183.846 325.964 183.934 326.312 183.934 326.72C183.934 327.448 183.686 328.028 183.19 328.46C182.702 328.884 182.05 329.096 181.234 329.096Z" fill="#B5B8C9"/>
<path d="M258.108 61.672C258.108 62.432 257.86 63.012 257.364 63.412C256.876 63.804 256.244 64 255.468 64H252.78C252.74 64 252.704 63.988 252.672 63.964C252.648 63.932 252.636 63.896 252.636 63.856V55.744C252.636 55.704 252.648 55.672 252.672 55.648C252.704 55.616 252.74 55.6 252.78 55.6H255.288C256.144 55.6 256.808 55.792 257.28 56.176C257.752 56.552 257.988 57.128 257.988 57.904C257.988 58.696 257.68 59.268 257.064 59.62C257.024 59.644 257.02 59.668 257.052 59.692C257.756 60.092 258.108 60.752 258.108 61.672ZM254.388 57.052C254.348 57.052 254.328 57.072 254.328 57.112V58.996C254.328 59.036 254.348 59.056 254.388 59.056H255.3C255.62 59.056 255.872 58.968 256.056 58.792C256.24 58.616 256.332 58.372 256.332 58.06C256.332 57.74 256.24 57.492 256.056 57.316C255.88 57.14 255.628 57.052 255.3 57.052H254.388ZM255.396 62.536C255.716 62.536 255.964 62.444 256.14 62.26C256.324 62.068 256.416 61.8 256.416 61.456C256.416 61.112 256.324 60.844 256.14 60.652C255.964 60.452 255.716 60.352 255.396 60.352H254.388C254.348 60.352 254.328 60.372 254.328 60.412V62.476C254.328 62.516 254.348 62.536 254.388 62.536H255.396ZM264.275 56.908C264.275 56.948 264.259 56.984 264.227 57.016C264.203 57.04 264.171 57.052 264.131 57.052H260.915C260.875 57.052 260.855 57.072 260.855 57.112V58.984C260.855 59.024 260.875 59.044 260.915 59.044H262.919C262.959 59.044 262.991 59.06 263.015 59.092C263.047 59.116 263.063 59.148 263.063 59.188V60.352C263.063 60.392 263.047 60.428 263.015 60.46C262.991 60.484 262.959 60.496 262.919 60.496H260.915C260.875 60.496 260.855 60.516 260.855 60.556V62.488C260.855 62.528 260.875 62.548 260.915 62.548H264.131C264.171 62.548 264.203 62.564 264.227 62.596C264.259 62.62 264.275 62.652 264.275 62.692V63.856C264.275 63.896 264.259 63.932 264.227 63.964C264.203 63.988 264.171 64 264.131 64H259.307C259.267 64 259.231 63.988 259.199 63.964C259.175 63.932 259.163 63.896 259.163 63.856V55.744C259.163 55.704 259.175 55.672 259.199 55.648C259.231 55.616 259.267 55.6 259.307 55.6H264.131C264.171 55.6 264.203 55.616 264.227 55.648C264.259 55.672 264.275 55.704 264.275 55.744V56.908ZM269.826 64C269.738 64 269.682 63.96 269.658 63.88L269.382 62.704C269.374 62.672 269.354 62.656 269.322 62.656H267.078C267.046 62.656 267.026 62.672 267.018 62.704L266.742 63.88C266.718 63.96 266.666 64 266.586 64H265.134C265.03 64 264.99 63.948 265.014 63.844L267.174 55.72C267.198 55.64 267.254 55.6 267.342 55.6H269.082C269.17 55.6 269.226 55.64 269.25 55.72L271.41 63.844L271.422 63.892C271.422 63.964 271.378 64 271.29 64H269.826ZM267.342 61.276C267.334 61.3 267.338 61.32 267.354 61.336C267.37 61.344 267.386 61.348 267.402 61.348H268.986C269.002 61.348 269.018 61.344 269.034 61.336C269.05 61.32 269.054 61.3 269.046 61.276L268.218 57.796C268.21 57.764 268.198 57.748 268.182 57.748C268.166 57.748 268.154 57.764 268.146 57.796L267.342 61.276ZM276.653 55.6C276.693 55.6 276.725 55.616 276.749 55.648C276.781 55.672 276.797 55.704 276.797 55.744V56.92C276.797 56.96 276.781 56.996 276.749 57.028C276.725 57.052 276.693 57.064 276.653 57.064H274.829C274.789 57.064 274.769 57.084 274.769 57.124V63.856C274.769 63.896 274.753 63.932 274.721 63.964C274.697 63.988 274.665 64 274.625 64H273.221C273.181 64 273.145 63.988 273.113 63.964C273.089 63.932 273.077 63.896 273.077 63.856V57.124C273.077 57.084 273.057 57.064 273.017 57.064H271.253C271.213 57.064 271.177 57.052 271.145 57.028C271.121 56.996 271.109 56.96 271.109 56.92V55.744C271.109 55.704 271.121 55.672 271.145 55.648C271.177 55.616 271.213 55.6 271.253 55.6H276.653ZM280.234 64.096C279.682 64.096 279.198 64 278.782 63.808C278.366 63.608 278.042 63.332 277.81 62.98C277.586 62.62 277.474 62.208 277.474 61.744V61.432C277.474 61.392 277.486 61.36 277.51 61.336C277.542 61.304 277.578 61.288 277.618 61.288H278.998C279.038 61.288 279.07 61.304 279.094 61.336C279.126 61.36 279.142 61.392 279.142 61.432V61.66C279.142 61.94 279.246 62.176 279.454 62.368C279.662 62.552 279.942 62.644 280.294 62.644C280.606 62.644 280.842 62.564 281.002 62.404C281.17 62.244 281.254 62.04 281.254 61.792C281.254 61.608 281.202 61.452 281.098 61.324C280.994 61.188 280.846 61.064 280.654 60.952C280.47 60.832 280.182 60.672 279.79 60.472C279.31 60.232 278.918 60.008 278.614 59.8C278.31 59.592 278.05 59.324 277.834 58.996C277.618 58.668 277.51 58.272 277.51 57.808C277.51 57.344 277.618 56.94 277.834 56.596C278.058 56.244 278.37 55.976 278.77 55.792C279.17 55.6 279.626 55.504 280.138 55.504C280.674 55.504 281.15 55.608 281.566 55.816C281.982 56.016 282.306 56.3 282.538 56.668C282.77 57.036 282.886 57.46 282.886 57.94V58.18C282.886 58.22 282.87 58.256 282.838 58.288C282.814 58.312 282.782 58.324 282.742 58.324H281.362C281.322 58.324 281.286 58.312 281.254 58.288C281.23 58.256 281.218 58.22 281.218 58.18V57.964C281.218 57.676 281.118 57.436 280.918 57.244C280.718 57.052 280.446 56.956 280.102 56.956C279.814 56.956 279.586 57.032 279.418 57.184C279.258 57.328 279.178 57.532 279.178 57.796C279.178 57.98 279.226 58.14 279.322 58.276C279.418 58.412 279.566 58.544 279.766 58.672C279.966 58.792 280.27 58.952 280.678 59.152L280.93 59.296C281.394 59.552 281.754 59.776 282.01 59.968C282.274 60.152 282.494 60.388 282.67 60.676C282.846 60.964 282.934 61.312 282.934 61.72C282.934 62.448 282.686 63.028 282.19 63.46C281.702 63.884 281.05 64.096 280.234 64.096Z" fill="#B5B8C9"/>
<path d="M108.211 68.3378C108.259 67.7876 107.852 67.3026 107.302 67.2544L98.3362 66.47C97.786 66.4219 97.301 66.8289 97.2528 67.3791C97.2047 67.9292 97.6117 68.4143 98.1619 68.4624L106.131 69.1597L105.434 77.1292C105.386 77.6794 105.793 78.1644 106.343 78.2126C106.893 78.2607 107.378 77.8537 107.427 77.3035L108.211 68.3378ZM83.4281 89.5154L107.858 69.0167L106.572 67.4846L82.1425 87.9834L83.4281 89.5154Z" fill="#B5B8C9"/>
<path d="M254.718 88.2495C255.269 88.2014 255.676 87.7164 255.628 87.1662L254.843 78.2004C254.795 77.6502 254.31 77.2432 253.76 77.2914C253.21 77.3395 252.803 77.8245 252.851 78.3747L253.548 86.3443L245.578 87.0415C245.028 87.0897 244.621 87.5747 244.669 88.1249C244.718 88.6751 245.203 89.0821 245.753 89.0339L254.718 88.2495ZM229.559 67.5206L253.989 88.0194L255.274 86.4873L230.845 65.9885L229.559 67.5206Z" fill="#B5B8C9"/>
<path d="M279.134 230.513C279.211 231.06 279.717 231.441 280.264 231.364L289.176 230.112C289.723 230.035 290.104 229.529 290.027 228.982C289.95 228.435 289.445 228.054 288.898 228.131L280.976 229.245L279.862 221.323C279.785 220.776 279.28 220.395 278.733 220.471C278.186 220.548 277.805 221.054 277.882 221.601L279.134 230.513ZM298.518 204.303L279.326 229.772L280.923 230.976L300.115 205.507L298.518 204.303Z" fill="#B5B8C9"/>
<path d="M152.293 304.293C151.902 304.683 151.902 305.317 152.293 305.707L158.657 312.071C159.047 312.462 159.681 312.462 160.071 312.071C160.462 311.681 160.462 311.047 160.071 310.657L154.414 305L160.071 299.343C160.462 298.953 160.462 298.319 160.071 297.929C159.681 297.538 159.047 297.538 158.657 297.929L152.293 304.293ZM184.89 304L153 304L153 306L184.89 306L184.89 304Z" fill="#B5B8C9"/>
<path d="M40.1392 205.01C39.5923 204.933 39.0866 205.314 39.0097 205.861L37.7572 214.773C37.6803 215.32 38.0614 215.826 38.6083 215.903C39.1552 215.98 39.6608 215.599 39.7377 215.052L40.8511 207.129L48.7732 208.243C49.3201 208.32 49.8258 207.939 49.9027 207.392C49.9795 206.845 49.5985 206.339 49.0516 206.262L40.1392 205.01ZM59.9908 230.867L40.7986 205.398L39.2014 206.602L58.3935 232.071L59.9908 230.867Z" fill="#B5B8C9"/>
<path d="M126.293 138.293C125.902 138.683 125.902 139.317 126.293 139.707L132.657 146.071C133.047 146.462 133.681 146.462 134.071 146.071C134.462 145.681 134.462 145.047 134.071 144.657L128.414 139L134.071 133.343C134.462 132.953 134.462 132.319 134.071 131.929C133.681 131.538 133.047 131.538 132.657 131.929L126.293 138.293ZM210.006 138H127V140H210.006V138Z" fill="#B5B8C9"/>
<path d="M187.222 125.166C186.722 124.933 186.127 125.149 185.894 125.65L182.09 133.806C181.857 134.307 182.073 134.902 182.574 135.135C183.074 135.369 183.669 135.152 183.903 134.652L187.284 127.401L194.534 130.782C195.035 131.016 195.63 130.799 195.863 130.298C196.096 129.798 195.88 129.203 195.379 128.97L187.222 125.166ZM216.129 203.73L187.74 125.73L185.86 126.414L214.25 204.414L216.129 203.73Z" fill="#B5B8C9"/>
<path d="M122.094 204.423C122.327 204.923 122.922 205.14 123.423 204.906L131.579 201.103C132.08 200.869 132.296 200.275 132.063 199.774C131.83 199.273 131.235 199.057 130.734 199.29L123.484 202.671L120.103 195.421C119.869 194.92 119.274 194.704 118.774 194.937C118.273 195.17 118.057 195.765 118.29 196.266L122.094 204.423ZM150.45 125.658L122.06 203.658L123.94 204.342L152.329 126.342L150.45 125.658Z" fill="#B5B8C9"/>
<path d="M180.673 228.351C181.224 228.303 181.631 227.818 181.583 227.268L180.798 218.302C180.75 217.752 180.265 217.345 179.715 217.393C179.165 217.441 178.758 217.926 178.806 218.477L179.503 226.446L171.533 227.143C170.983 227.192 170.576 227.677 170.624 228.227C170.672 228.777 171.158 229.184 171.708 229.136L180.673 228.351ZM116.357 174.766L179.944 228.121L181.229 226.589L117.643 173.234L116.357 174.766Z" fill="#B5B8C9"/>
<path d="M156.004 227.268C155.956 227.818 156.363 228.303 156.913 228.351L165.879 229.136C166.429 229.184 166.914 228.777 166.962 228.227C167.01 227.677 166.603 227.192 166.053 227.143L158.083 226.446L158.781 218.477C158.829 217.926 158.422 217.441 157.872 217.393C157.321 217.345 156.836 217.752 156.788 218.302L156.004 227.268ZM157.643 228.121L221.229 174.766L219.944 173.234L156.357 226.589L157.643 228.121Z" fill="#B5B8C9"/>
<path d="M162.072 147.448C162.072 147.955 161.907 148.341 161.576 148.608C161.251 148.869 160.829 149 160.312 149H158.52C158.493 149 158.469 148.992 158.448 148.976C158.432 148.955 158.424 148.931 158.424 148.904V143.496C158.424 143.469 158.432 143.448 158.448 143.432C158.469 143.411 158.493 143.4 158.52 143.4H160.192C160.763 143.4 161.205 143.528 161.52 143.784C161.835 144.035 161.992 144.419 161.992 144.936C161.992 145.464 161.787 145.845 161.376 146.08C161.349 146.096 161.347 146.112 161.368 146.128C161.837 146.395 162.072 146.835 162.072 147.448ZM159.592 144.368C159.565 144.368 159.552 144.381 159.552 144.408V145.664C159.552 145.691 159.565 145.704 159.592 145.704H160.2C160.413 145.704 160.581 145.645 160.704 145.528C160.827 145.411 160.888 145.248 160.888 145.04C160.888 144.827 160.827 144.661 160.704 144.544C160.587 144.427 160.419 144.368 160.2 144.368H159.592ZM160.264 148.024C160.477 148.024 160.643 147.963 160.76 147.84C160.883 147.712 160.944 147.533 160.944 147.304C160.944 147.075 160.883 146.896 160.76 146.768C160.643 146.635 160.477 146.568 160.264 146.568H159.592C159.565 146.568 159.552 146.581 159.552 146.608V147.984C159.552 148.011 159.565 148.024 159.592 148.024H160.264ZM166.184 144.272C166.184 144.299 166.173 144.323 166.152 144.344C166.136 144.36 166.114 144.368 166.088 144.368H163.944C163.917 144.368 163.904 144.381 163.904 144.408V145.656C163.904 145.683 163.917 145.696 163.944 145.696H165.28C165.306 145.696 165.328 145.707 165.344 145.728C165.365 145.744 165.376 145.765 165.376 145.792V146.568C165.376 146.595 165.365 146.619 165.344 146.64C165.328 146.656 165.306 146.664 165.28 146.664H163.944C163.917 146.664 163.904 146.677 163.904 146.704V147.992C163.904 148.019 163.917 148.032 163.944 148.032H166.088C166.114 148.032 166.136 148.043 166.152 148.064C166.173 148.08 166.184 148.101 166.184 148.128V148.904C166.184 148.931 166.173 148.955 166.152 148.976C166.136 148.992 166.114 149 166.088 149H162.872C162.845 149 162.821 148.992 162.8 148.976C162.784 148.955 162.776 148.931 162.776 148.904V143.496C162.776 143.469 162.784 143.448 162.8 143.432C162.821 143.411 162.845 143.4 162.872 143.4H166.088C166.114 143.4 166.136 143.411 166.152 143.432C166.173 143.448 166.184 143.469 166.184 143.496V144.272ZM169.884 149C169.825 149 169.788 148.973 169.772 148.92L169.588 148.136C169.583 148.115 169.569 148.104 169.548 148.104H168.052C168.031 148.104 168.017 148.115 168.012 148.136L167.828 148.92C167.812 148.973 167.777 149 167.724 149H166.756C166.687 149 166.66 148.965 166.676 148.896L168.116 143.48C168.132 143.427 168.169 143.4 168.228 143.4H169.388C169.447 143.4 169.484 143.427 169.5 143.48L170.94 148.896L170.948 148.928C170.948 148.976 170.919 149 170.86 149H169.884ZM168.228 147.184C168.223 147.2 168.225 147.213 168.236 147.224C168.247 147.229 168.257 147.232 168.268 147.232H169.324C169.335 147.232 169.345 147.229 169.356 147.224C169.367 147.213 169.369 147.2 169.364 147.184L168.812 144.864C168.807 144.843 168.799 144.832 168.788 144.832C168.777 144.832 168.769 144.843 168.764 144.864L168.228 147.184ZM174.435 143.4C174.462 143.4 174.483 143.411 174.499 143.432C174.521 143.448 174.531 143.469 174.531 143.496V144.28C174.531 144.307 174.521 144.331 174.499 144.352C174.483 144.368 174.462 144.376 174.435 144.376H173.219C173.193 144.376 173.179 144.389 173.179 144.416V148.904C173.179 148.931 173.169 148.955 173.147 148.976C173.131 148.992 173.11 149 173.083 149H172.147C172.121 149 172.097 148.992 172.075 148.976C172.059 148.955 172.051 148.931 172.051 148.904V144.416C172.051 144.389 172.038 144.376 172.011 144.376H170.835C170.809 144.376 170.785 144.368 170.763 144.352C170.747 144.331 170.739 144.307 170.739 144.28V143.496C170.739 143.469 170.747 143.448 170.763 143.432C170.785 143.411 170.809 143.4 170.835 143.4H174.435ZM176.823 149.064C176.455 149.064 176.132 149 175.855 148.872C175.577 148.739 175.361 148.555 175.207 148.32C175.057 148.08 174.983 147.805 174.983 147.496V147.288C174.983 147.261 174.991 147.24 175.007 147.224C175.028 147.203 175.052 147.192 175.079 147.192H175.999C176.025 147.192 176.047 147.203 176.063 147.224C176.084 147.24 176.095 147.261 176.095 147.288V147.44C176.095 147.627 176.164 147.784 176.303 147.912C176.441 148.035 176.628 148.096 176.863 148.096C177.071 148.096 177.228 148.043 177.335 147.936C177.447 147.829 177.503 147.693 177.503 147.528C177.503 147.405 177.468 147.301 177.399 147.216C177.329 147.125 177.231 147.043 177.103 146.968C176.98 146.888 176.788 146.781 176.527 146.648C176.207 146.488 175.945 146.339 175.743 146.2C175.54 146.061 175.367 145.883 175.223 145.664C175.079 145.445 175.007 145.181 175.007 144.872C175.007 144.563 175.079 144.293 175.223 144.064C175.372 143.829 175.58 143.651 175.847 143.528C176.113 143.4 176.417 143.336 176.759 143.336C177.116 143.336 177.433 143.405 177.711 143.544C177.988 143.677 178.204 143.867 178.359 144.112C178.513 144.357 178.591 144.64 178.591 144.96V145.12C178.591 145.147 178.58 145.171 178.559 145.192C178.543 145.208 178.521 145.216 178.495 145.216H177.575C177.548 145.216 177.524 145.208 177.503 145.192C177.487 145.171 177.479 145.147 177.479 145.12V144.976C177.479 144.784 177.412 144.624 177.279 144.496C177.145 144.368 176.964 144.304 176.735 144.304C176.543 144.304 176.391 144.355 176.279 144.456C176.172 144.552 176.119 144.688 176.119 144.864C176.119 144.987 176.151 145.093 176.215 145.184C176.279 145.275 176.377 145.363 176.511 145.448C176.644 145.528 176.847 145.635 177.119 145.768L177.287 145.864C177.596 146.035 177.836 146.184 178.007 146.312C178.183 146.435 178.329 146.592 178.447 146.784C178.564 146.976 178.623 147.208 178.623 147.48C178.623 147.965 178.457 148.352 178.127 148.64C177.801 148.923 177.367 149.064 176.823 149.064Z" fill="#B5B8C9"/>
<path d="M147.402 193.557C147.077 193.945 146.702 194.135 146.277 194.127C145.86 194.118 145.453 193.947 145.057 193.614L143.684 192.463C143.663 192.445 143.65 192.424 143.644 192.398C143.646 192.371 143.655 192.348 143.672 192.327L147.148 188.185C147.165 188.164 147.185 188.153 147.208 188.151C147.238 188.148 147.263 188.156 147.284 188.173L148.564 189.247C149.001 189.614 149.258 189.997 149.335 190.395C149.415 190.79 149.288 191.185 148.956 191.581C148.617 191.986 148.214 192.146 147.749 192.062C147.718 192.057 147.706 192.067 147.712 192.093C147.9 192.599 147.797 193.087 147.402 193.557ZM147.482 189.603C147.462 189.586 147.443 189.588 147.426 189.608L146.619 190.57C146.602 190.591 146.603 190.61 146.624 190.627L147.089 191.018C147.253 191.155 147.419 191.218 147.589 191.207C147.758 191.196 147.91 191.111 148.043 190.951C148.18 190.788 148.24 190.622 148.221 190.453C148.207 190.288 148.116 190.135 147.948 189.994L147.482 189.603ZM145.647 192.836C145.811 192.973 145.977 193.032 146.145 193.014C146.322 192.995 146.484 192.897 146.631 192.722C146.778 192.546 146.846 192.37 146.835 192.193C146.83 192.015 146.747 191.858 146.583 191.721L146.068 191.289C146.048 191.272 146.029 191.273 146.012 191.294L145.128 192.348C145.11 192.368 145.112 192.387 145.132 192.404L145.647 192.836ZM152.594 193.767C152.576 193.787 152.553 193.799 152.523 193.801C152.5 193.803 152.479 193.796 152.458 193.779L150.816 192.4C150.796 192.383 150.777 192.385 150.76 192.405L149.957 193.361C149.94 193.382 149.942 193.401 149.962 193.418L150.986 194.277C151.006 194.294 151.016 194.316 151.014 194.342C151.02 194.368 151.015 194.391 150.998 194.412L150.499 195.006C150.482 195.027 150.458 195.038 150.428 195.041C150.405 195.043 150.384 195.035 150.364 195.018L149.34 194.159C149.32 194.142 149.301 194.144 149.284 194.164L148.456 195.151C148.439 195.171 148.44 195.19 148.461 195.207L150.103 196.585C150.124 196.603 150.133 196.624 150.132 196.651C150.138 196.677 150.132 196.7 150.115 196.721L149.616 197.315C149.599 197.336 149.575 197.347 149.545 197.35C149.523 197.352 149.501 197.344 149.481 197.327L147.017 195.26C146.997 195.243 146.984 195.221 146.978 195.195C146.979 195.168 146.988 195.145 147.006 195.124L150.482 190.982C150.499 190.961 150.519 190.95 150.541 190.948C150.571 190.945 150.597 190.953 150.617 190.97L153.081 193.037C153.101 193.054 153.111 193.076 153.109 193.103C153.115 193.129 153.11 193.152 153.092 193.172L152.594 193.767ZM152.389 199.767C152.344 199.73 152.333 199.685 152.355 199.634L152.718 198.915C152.727 198.895 152.724 198.879 152.708 198.865L151.562 197.903C151.545 197.89 151.528 197.889 151.511 197.902L150.866 198.384C150.819 198.415 150.775 198.413 150.735 198.379L149.993 197.757C149.94 197.712 149.942 197.668 149.999 197.626L154.583 194.402C154.63 194.372 154.675 194.375 154.72 194.413L155.609 195.159C155.654 195.196 155.665 195.241 155.643 195.292L153.265 200.366L153.251 200.396C153.22 200.433 153.182 200.432 153.137 200.395L152.389 199.767ZM152.288 197.312C152.274 197.32 152.267 197.332 152.268 197.347C152.273 197.358 152.28 197.367 152.288 197.374L153.097 198.053C153.105 198.06 153.115 198.065 153.126 198.067C153.141 198.066 153.152 198.058 153.158 198.042L154.227 195.91C154.236 195.89 154.237 195.877 154.229 195.87C154.221 195.863 154.208 195.866 154.19 195.879L152.288 197.312ZM159.475 198.403C159.496 198.42 159.505 198.442 159.504 198.469C159.51 198.495 159.504 198.518 159.487 198.538L158.983 199.139C158.966 199.159 158.942 199.171 158.912 199.173C158.89 199.175 158.868 199.168 158.848 199.151L157.916 198.369C157.896 198.352 157.877 198.353 157.86 198.374L154.975 201.812C154.958 201.832 154.935 201.844 154.904 201.846C154.882 201.848 154.86 201.841 154.84 201.824L154.123 201.222C154.103 201.205 154.089 201.183 154.083 201.157C154.085 201.131 154.094 201.107 154.111 201.087L156.996 197.649C157.013 197.628 157.011 197.61 156.991 197.592L156.09 196.837C156.07 196.819 156.057 196.798 156.05 196.772C156.052 196.745 156.061 196.722 156.078 196.701L156.582 196.101C156.599 196.08 156.619 196.069 156.642 196.067C156.672 196.064 156.697 196.072 156.718 196.089L159.475 198.403ZM157.663 204.276C157.382 204.04 157.176 203.783 157.045 203.507C156.919 203.227 156.871 202.947 156.904 202.668C156.944 202.388 157.063 202.129 157.262 201.893L157.396 201.733C157.413 201.713 157.433 201.702 157.455 201.7C157.485 201.697 157.51 201.704 157.531 201.721L158.236 202.313C158.256 202.33 158.265 202.352 158.264 202.378C158.27 202.404 158.265 202.428 158.247 202.448L158.15 202.564C158.03 202.707 157.982 202.872 158.006 203.06C158.033 203.243 158.137 203.41 158.316 203.561C158.476 203.694 158.63 203.755 158.781 203.741C158.935 203.732 159.065 203.664 159.172 203.537C159.251 203.443 159.291 203.341 159.293 203.231C159.298 203.117 159.275 202.99 159.225 202.851C159.183 202.711 159.104 202.506 158.99 202.235C158.847 201.907 158.743 201.625 158.677 201.388C158.611 201.152 158.593 200.903 158.623 200.643C158.654 200.383 158.768 200.135 158.967 199.898C159.166 199.661 159.394 199.501 159.652 199.418C159.917 199.334 160.191 199.331 160.474 199.408C160.761 199.482 161.035 199.628 161.296 199.847C161.57 200.077 161.769 200.334 161.892 200.619C162.019 200.899 162.062 201.183 162.023 201.47C161.984 201.758 161.862 202.024 161.656 202.269L161.553 202.392C161.536 202.412 161.512 202.424 161.482 202.426C161.46 202.428 161.438 202.421 161.418 202.403L160.713 201.812C160.693 201.795 160.679 201.773 160.673 201.747C160.675 201.721 160.684 201.697 160.701 201.677L160.794 201.566C160.917 201.419 160.969 201.254 160.949 201.07C160.929 200.886 160.831 200.721 160.656 200.573C160.509 200.45 160.36 200.391 160.209 200.397C160.065 200.402 159.937 200.472 159.824 200.607C159.745 200.7 159.701 200.803 159.692 200.913C159.682 201.024 159.702 201.155 159.749 201.306C159.8 201.453 159.886 201.665 160.009 201.942L160.076 202.123C160.203 202.453 160.291 202.722 160.339 202.929C160.395 203.136 160.407 203.351 160.373 203.574C160.34 203.796 160.235 204.012 160.061 204.22C159.749 204.592 159.373 204.782 158.935 204.79C158.504 204.797 158.08 204.626 157.663 204.276Z" fill="#B5B8C9"/>
<path d="M180.264 201.821C180.59 202.209 180.712 202.611 180.63 203.028C180.548 203.437 180.31 203.808 179.913 204.141L178.541 205.293C178.52 205.31 178.497 205.319 178.47 205.321C178.444 205.314 178.423 205.301 178.405 205.281L174.929 201.138C174.912 201.118 174.904 201.096 174.906 201.074C174.909 201.044 174.921 201.02 174.941 201.003L176.222 199.928C176.659 199.561 177.08 199.375 177.486 199.369C177.888 199.358 178.256 199.551 178.588 199.948C178.927 200.352 179.015 200.776 178.852 201.22C178.841 201.249 178.85 201.263 178.876 201.262C179.407 201.165 179.87 201.351 180.264 201.821ZM176.384 201.055C176.364 201.072 176.362 201.091 176.38 201.112L177.187 202.074C177.204 202.094 177.223 202.096 177.243 202.079L177.709 201.688C177.872 201.551 177.963 201.398 177.982 201.229C178 201.06 177.943 200.896 177.809 200.737C177.672 200.574 177.519 200.486 177.349 200.475C177.184 200.461 177.018 200.524 176.85 200.664L176.384 201.055ZM179.249 203.424C179.413 203.287 179.5 203.134 179.511 202.964C179.523 202.787 179.455 202.611 179.307 202.435C179.16 202.26 178.998 202.162 178.822 202.143C178.646 202.116 178.477 202.171 178.313 202.309L177.799 202.741C177.778 202.758 177.777 202.776 177.794 202.797L178.678 203.851C178.695 203.871 178.714 203.873 178.734 203.856L179.249 203.424ZM181.372 196.745C181.389 196.765 181.397 196.79 181.394 196.82C181.392 196.843 181.381 196.863 181.36 196.88L179.718 198.258C179.698 198.275 179.696 198.294 179.713 198.314L180.515 199.271C180.532 199.291 180.551 199.293 180.572 199.275L181.595 198.417C181.615 198.4 181.639 198.394 181.665 198.4C181.691 198.399 181.713 198.408 181.73 198.429L182.229 199.023C182.246 199.043 182.253 199.069 182.251 199.099C182.249 199.121 182.238 199.141 182.217 199.158L181.194 200.017C181.173 200.034 181.172 200.053 181.189 200.073L182.017 201.06C182.034 201.08 182.053 201.082 182.073 201.065L183.716 199.687C183.736 199.67 183.759 199.664 183.785 199.67C183.812 199.669 183.834 199.678 183.851 199.699L184.35 200.293C184.367 200.313 184.374 200.339 184.371 200.369C184.369 200.391 184.358 200.411 184.338 200.428L181.874 202.496C181.854 202.513 181.83 202.522 181.804 202.523C181.778 202.517 181.756 202.504 181.739 202.484L178.263 198.341C178.246 198.32 178.238 198.299 178.24 198.276C178.243 198.246 178.254 198.223 178.275 198.206L180.738 196.138C180.759 196.121 180.782 196.116 180.808 196.122C180.834 196.12 180.856 196.13 180.873 196.15L181.372 196.745ZM187.246 197.988C187.201 198.026 187.155 198.029 187.109 197.999L186.464 197.516C186.446 197.503 186.429 197.504 186.413 197.518L185.267 198.479C185.25 198.493 185.247 198.51 185.257 198.529L185.62 199.248C185.642 199.299 185.632 199.342 185.591 199.376L184.85 199.999C184.797 200.043 184.754 200.034 184.722 199.97L182.343 194.896C182.321 194.845 182.333 194.8 182.378 194.763L183.266 194.017C183.311 193.979 183.357 193.976 183.404 194.006L187.988 197.23L188.015 197.249C188.046 197.286 188.039 197.323 187.994 197.361L187.246 197.988ZM184.81 197.661C184.816 197.677 184.827 197.686 184.842 197.687C184.854 197.684 184.863 197.679 184.872 197.672L185.681 196.994C185.689 196.987 185.695 196.978 185.7 196.967C185.701 196.952 185.695 196.94 185.68 196.931L183.766 195.509C183.748 195.496 183.735 195.493 183.727 195.5C183.719 195.506 183.72 195.52 183.729 195.54L184.81 197.661ZM187.133 190.773C187.153 190.756 187.176 190.75 187.202 190.756C187.229 190.755 187.251 190.764 187.268 190.785L187.772 191.385C187.789 191.406 187.796 191.431 187.794 191.461C187.792 191.483 187.781 191.503 187.76 191.52L186.829 192.302C186.808 192.319 186.807 192.338 186.824 192.358L189.709 195.796C189.726 195.817 189.733 195.842 189.73 195.872C189.728 195.895 189.717 195.914 189.697 195.932L188.98 196.533C188.959 196.55 188.936 196.56 188.909 196.561C188.883 196.555 188.862 196.542 188.844 196.521L185.96 193.083C185.943 193.063 185.924 193.061 185.903 193.078L185.002 193.834C184.982 193.852 184.958 193.861 184.932 193.862C184.906 193.856 184.884 193.843 184.867 193.823L184.363 193.222C184.346 193.202 184.339 193.18 184.34 193.158C184.343 193.127 184.355 193.104 184.375 193.087L187.133 190.773ZM192.603 193.577C192.321 193.813 192.032 193.972 191.738 194.052C191.439 194.128 191.156 194.126 190.886 194.046C190.618 193.958 190.384 193.795 190.185 193.558L190.051 193.399C190.034 193.379 190.027 193.357 190.029 193.335C190.031 193.305 190.043 193.281 190.063 193.264L190.768 192.673C190.788 192.655 190.812 192.65 190.838 192.656C190.864 192.654 190.886 192.664 190.903 192.684L191.001 192.801C191.121 192.944 191.275 193.02 191.464 193.029C191.649 193.033 191.831 192.96 192.011 192.81C192.17 192.676 192.257 192.534 192.27 192.384C192.287 192.23 192.242 192.09 192.136 191.963C192.057 191.869 191.964 191.812 191.856 191.791C191.744 191.766 191.616 191.766 191.47 191.791C191.324 191.809 191.109 191.851 190.823 191.916C190.475 192 190.179 192.053 189.934 192.077C189.69 192.101 189.442 192.076 189.191 192.001C188.94 191.926 188.716 191.77 188.517 191.533C188.318 191.296 188.2 191.043 188.163 190.775C188.126 190.499 188.171 190.229 188.296 189.963C188.418 189.694 188.61 189.45 188.872 189.23C189.145 189 189.433 188.85 189.735 188.778C190.033 188.701 190.32 188.708 190.596 188.796C190.872 188.885 191.113 189.051 191.319 189.297L191.422 189.419C191.439 189.44 191.446 189.465 191.443 189.495C191.442 189.517 191.43 189.537 191.41 189.554L190.705 190.146C190.685 190.163 190.661 190.172 190.635 190.174C190.609 190.168 190.587 190.154 190.57 190.134L190.477 190.024C190.354 189.877 190.2 189.797 190.016 189.784C189.831 189.772 189.651 189.84 189.475 189.987C189.328 190.111 189.244 190.247 189.224 190.397C189.204 190.539 189.25 190.677 189.363 190.812C189.442 190.906 189.535 190.967 189.643 190.995C189.75 191.024 189.882 191.028 190.039 191.007C190.193 190.983 190.417 190.934 190.711 190.862L190.901 190.827C191.248 190.759 191.528 190.719 191.741 190.708C191.954 190.689 192.168 190.715 192.381 190.786C192.594 190.858 192.788 190.998 192.963 191.206C193.275 191.578 193.397 191.981 193.329 192.414C193.261 192.84 193.019 193.227 192.603 193.577Z" fill="#B5B8C9"/>
<path d="M197.849 174.122C198.325 173.949 198.745 173.972 199.109 174.191C199.465 174.408 199.732 174.759 199.909 175.245L200.522 176.929C200.531 176.954 200.532 176.979 200.524 177.005C200.51 177.027 200.49 177.043 200.465 177.052L195.383 178.902C195.358 178.911 195.335 178.911 195.315 178.901C195.287 178.888 195.269 178.869 195.26 178.844L194.688 177.273C194.493 176.737 194.462 176.277 194.595 175.894C194.723 175.512 195.03 175.233 195.516 175.056C196.012 174.876 196.44 174.938 196.801 175.244C196.826 175.263 196.842 175.261 196.849 175.235C196.939 174.703 197.273 174.332 197.849 174.122ZM195.803 177.506C195.812 177.531 195.829 177.539 195.854 177.53L197.034 177.1C197.059 177.091 197.067 177.074 197.058 177.049L196.85 176.478C196.777 176.277 196.665 176.139 196.513 176.064C196.36 175.989 196.186 175.987 195.991 176.058C195.791 176.131 195.656 176.245 195.588 176.401C195.518 176.551 195.52 176.729 195.595 176.935L195.803 177.506ZM199.009 175.624C198.936 175.423 198.821 175.289 198.666 175.221C198.504 175.149 198.315 175.153 198.099 175.231C197.884 175.31 197.737 175.428 197.659 175.587C197.573 175.743 197.567 175.921 197.64 176.122L197.87 176.753C197.879 176.778 197.896 176.786 197.921 176.777L199.214 176.307C199.239 176.298 199.247 176.28 199.238 176.255L199.009 175.624ZM193.458 171.345C193.483 171.336 193.509 171.337 193.537 171.35C193.557 171.36 193.572 171.377 193.581 171.402L194.315 173.417C194.324 173.442 194.341 173.45 194.366 173.441L195.539 173.014C195.564 173.005 195.572 172.988 195.562 172.962L195.105 171.707C195.096 171.682 195.099 171.658 195.114 171.636C195.121 171.61 195.138 171.593 195.163 171.584L195.892 171.319C195.917 171.309 195.943 171.311 195.971 171.324C195.991 171.334 196.006 171.351 196.015 171.376L196.472 172.631C196.481 172.656 196.498 172.664 196.523 172.655L197.734 172.215C197.759 172.206 197.767 172.189 197.758 172.164L197.024 170.149C197.015 170.124 197.018 170.1 197.032 170.078C197.04 170.052 197.057 170.035 197.082 170.026L197.811 169.76C197.836 169.751 197.862 169.753 197.889 169.766C197.91 169.775 197.925 169.793 197.934 169.818L199.034 172.84C199.043 172.865 199.044 172.89 199.036 172.916C199.021 172.938 199.001 172.954 198.976 172.963L193.895 174.813C193.87 174.822 193.847 174.821 193.826 174.812C193.799 174.799 193.781 174.78 193.772 174.755L192.672 171.733C192.662 171.708 192.665 171.684 192.68 171.662C192.688 171.636 192.704 171.619 192.729 171.61L193.458 171.345ZM196.635 166.25C196.655 166.305 196.643 166.35 196.599 166.383L195.925 166.824C195.907 166.836 195.901 166.852 195.908 166.872L196.42 168.278C196.427 168.298 196.442 168.307 196.464 168.305L197.263 168.21C197.319 168.206 197.356 168.23 197.374 168.28L197.705 169.19C197.729 169.255 197.706 169.292 197.635 169.3L192.053 169.8C191.997 169.803 191.96 169.777 191.94 169.722L191.543 168.632C191.523 168.577 191.535 168.532 191.58 168.499L196.177 165.294L196.204 165.275C196.249 165.259 196.282 165.278 196.302 165.333L196.635 166.25ZM195.495 168.428C195.512 168.427 195.524 168.42 195.53 168.406C195.532 168.394 195.53 168.384 195.527 168.374L195.166 167.381C195.162 167.371 195.156 167.362 195.147 167.354C195.133 167.347 195.12 167.35 195.107 167.36L193.115 168.672C193.097 168.685 193.09 168.696 193.094 168.706C193.097 168.716 193.11 168.72 193.132 168.717L195.495 168.428ZM189.817 163.889C189.807 163.864 189.81 163.84 189.825 163.818C189.832 163.792 189.849 163.775 189.874 163.766L190.611 163.498C190.636 163.489 190.662 163.49 190.689 163.503C190.71 163.513 190.725 163.53 190.734 163.555L191.15 164.698C191.159 164.723 191.176 164.731 191.201 164.722L195.418 163.187C195.443 163.177 195.469 163.179 195.497 163.192C195.517 163.202 195.532 163.219 195.541 163.244L195.861 164.124C195.87 164.149 195.871 164.174 195.863 164.199C195.849 164.222 195.829 164.237 195.804 164.247L191.587 165.782C191.562 165.791 191.554 165.808 191.563 165.833L191.965 166.938C191.974 166.963 191.975 166.988 191.967 167.014C191.952 167.036 191.933 167.052 191.908 167.061L191.171 167.329C191.146 167.338 191.123 167.338 191.102 167.328C191.075 167.316 191.057 167.297 191.048 167.272L189.817 163.889ZM194.322 159.708C194.448 160.054 194.498 160.379 194.473 160.683C194.443 160.99 194.344 161.256 194.176 161.481C194.001 161.704 193.769 161.868 193.478 161.973L193.283 162.045C193.258 162.054 193.235 162.053 193.214 162.044C193.187 162.031 193.169 162.012 193.16 161.987L192.845 161.123C192.836 161.098 192.839 161.074 192.853 161.052C192.861 161.026 192.877 161.009 192.902 161L193.045 160.948C193.221 160.884 193.345 160.765 193.418 160.591C193.486 160.418 193.479 160.222 193.399 160.002C193.328 159.806 193.224 159.677 193.087 159.613C192.949 159.544 192.802 159.538 192.646 159.594C192.531 159.636 192.445 159.705 192.389 159.799C192.327 159.895 192.283 160.016 192.257 160.162C192.224 160.304 192.189 160.521 192.153 160.813C192.112 161.168 192.061 161.465 192 161.703C191.939 161.94 191.831 162.164 191.675 162.374C191.518 162.585 191.295 162.743 191.004 162.848C190.714 162.954 190.436 162.979 190.171 162.922C189.9 162.862 189.661 162.727 189.454 162.519C189.243 162.312 189.078 162.048 188.962 161.727C188.839 161.392 188.796 161.07 188.832 160.762C188.862 160.455 188.966 160.188 189.144 159.958C189.321 159.729 189.56 159.56 189.861 159.45L190.012 159.396C190.037 159.387 190.063 159.388 190.09 159.401C190.111 159.411 190.125 159.428 190.135 159.453L190.449 160.318C190.458 160.343 190.459 160.368 190.451 160.393C190.437 160.416 190.417 160.431 190.392 160.441L190.257 160.49C190.076 160.556 189.949 160.673 189.874 160.842C189.799 161.011 189.801 161.203 189.88 161.419C189.945 161.599 190.045 161.725 190.178 161.795C190.305 161.863 190.451 161.866 190.616 161.806C190.732 161.764 190.821 161.698 190.884 161.606C190.948 161.515 190.997 161.393 191.031 161.238C191.061 161.085 191.092 160.858 191.124 160.557L191.157 160.367C191.211 160.017 191.269 159.741 191.331 159.537C191.386 159.329 191.484 159.138 191.624 158.962C191.765 158.786 191.963 158.651 192.218 158.558C192.674 158.392 193.094 158.416 193.478 158.628C193.855 158.837 194.136 159.197 194.322 159.708Z" fill="#B5B8C9"/>
<path d="M145.128 162.041C144.651 161.868 144.345 161.58 144.207 161.178C144.073 160.783 144.094 160.343 144.271 159.857L144.884 158.173C144.893 158.148 144.909 158.128 144.931 158.113C144.957 158.105 144.982 158.106 145.007 158.115L150.089 159.965C150.114 159.974 150.131 159.989 150.141 160.009C150.154 160.037 150.155 160.063 150.146 160.088L149.574 161.659C149.379 162.195 149.108 162.568 148.759 162.776C148.416 162.986 148.002 163.002 147.515 162.825C147.019 162.645 146.731 162.321 146.651 161.855C146.645 161.825 146.631 161.817 146.609 161.831C146.198 162.181 145.704 162.251 145.128 162.041ZM148.87 160.764C148.879 160.739 148.871 160.722 148.846 160.713L147.666 160.283C147.641 160.274 147.624 160.282 147.615 160.307L147.407 160.879C147.334 161.079 147.331 161.257 147.4 161.412C147.468 161.568 147.6 161.681 147.795 161.752C147.996 161.825 148.172 161.824 148.324 161.749C148.475 161.679 148.587 161.541 148.662 161.336L148.87 160.764ZM145.205 160.145C145.132 160.346 145.133 160.522 145.208 160.674C145.286 160.833 145.433 160.952 145.649 161.031C145.864 161.109 146.053 161.112 146.215 161.041C146.381 160.976 146.5 160.844 146.573 160.643L146.803 160.012C146.812 159.987 146.804 159.97 146.779 159.961L145.486 159.49C145.461 159.481 145.444 159.489 145.434 159.514L145.205 160.145ZM146.706 166.991C146.681 166.982 146.662 166.964 146.649 166.936C146.639 166.916 146.639 166.893 146.648 166.868L147.382 164.853C147.391 164.828 147.383 164.811 147.358 164.802L146.185 164.375C146.16 164.366 146.143 164.374 146.134 164.399L145.677 165.655C145.668 165.68 145.65 165.696 145.625 165.704C145.603 165.718 145.579 165.721 145.554 165.712L144.825 165.447C144.799 165.437 144.781 165.419 144.768 165.392C144.758 165.371 144.758 165.349 144.767 165.324L145.224 164.068C145.233 164.043 145.225 164.026 145.2 164.017L143.99 163.576C143.965 163.567 143.948 163.575 143.939 163.6L143.205 165.615C143.196 165.64 143.179 165.656 143.153 165.664C143.131 165.679 143.107 165.681 143.082 165.672L142.353 165.407C142.328 165.398 142.309 165.38 142.296 165.352C142.287 165.332 142.287 165.309 142.296 165.284L143.396 162.262C143.405 162.237 143.42 162.217 143.443 162.202C143.468 162.195 143.494 162.195 143.519 162.204L148.601 164.054C148.626 164.063 148.643 164.078 148.652 164.099C148.665 164.126 148.667 164.152 148.658 164.177L147.558 167.199C147.549 167.224 147.532 167.241 147.506 167.248C147.484 167.263 147.46 167.266 147.435 167.257L146.706 166.991ZM140.997 168.851C141.017 168.796 141.055 168.77 141.111 168.773L141.91 168.869C141.932 168.871 141.947 168.862 141.954 168.842L142.466 167.436C142.473 167.416 142.468 167.4 142.449 167.388L141.776 166.947C141.731 166.913 141.718 166.872 141.736 166.822L142.067 165.912C142.091 165.847 142.132 165.834 142.192 165.872L146.789 169.078C146.834 169.111 146.846 169.155 146.826 169.211L146.429 170.301C146.409 170.356 146.371 170.382 146.316 170.378L140.734 169.879L140.701 169.876C140.656 169.859 140.643 169.824 140.663 169.768L140.997 168.851ZM143.27 167.916C143.257 167.906 143.243 167.904 143.23 167.91C143.221 167.918 143.215 167.927 143.211 167.937L142.85 168.93C142.846 168.94 142.845 168.951 142.847 168.963C142.853 168.976 142.865 168.983 142.882 168.984L145.25 169.259C145.272 169.261 145.285 169.257 145.289 169.247C145.292 169.237 145.285 169.226 145.267 169.213L143.27 167.916ZM144.703 175.043C144.694 175.068 144.676 175.085 144.651 175.093C144.629 175.107 144.605 175.11 144.58 175.101L143.843 174.833C143.818 174.824 143.799 174.805 143.786 174.778C143.777 174.757 143.777 174.735 143.786 174.71L144.202 173.567C144.211 173.542 144.203 173.525 144.178 173.516L139.96 171.981C139.935 171.972 139.916 171.953 139.904 171.926C139.894 171.905 139.894 171.883 139.903 171.858L140.223 170.978C140.232 170.953 140.248 170.933 140.27 170.919C140.296 170.911 140.321 170.912 140.346 170.921L144.564 172.456C144.589 172.465 144.606 172.457 144.615 172.432L145.017 171.327C145.026 171.302 145.042 171.282 145.064 171.267C145.09 171.26 145.115 171.26 145.14 171.269L145.877 171.537C145.902 171.547 145.919 171.561 145.929 171.582C145.941 171.609 145.943 171.635 145.934 171.661L144.703 175.043ZM138.564 175.35C138.69 175.004 138.86 174.723 139.075 174.506C139.296 174.291 139.542 174.151 139.816 174.086C140.092 174.027 140.376 174.051 140.667 174.157L140.862 174.228C140.887 174.237 140.904 174.252 140.914 174.273C140.927 174.3 140.929 174.326 140.919 174.351L140.605 175.216C140.596 175.241 140.578 175.257 140.553 175.265C140.531 175.279 140.507 175.282 140.482 175.273L140.339 175.221C140.164 175.157 139.992 175.169 139.824 175.255C139.662 175.343 139.54 175.498 139.46 175.718C139.389 175.914 139.385 176.08 139.449 176.217C139.511 176.358 139.619 176.458 139.775 176.514C139.89 176.556 140 176.559 140.103 176.523C140.212 176.489 140.324 176.424 140.438 176.33C140.555 176.242 140.721 176.098 140.935 175.898C141.195 175.652 141.425 175.457 141.625 175.314C141.824 175.171 142.051 175.07 142.306 175.009C142.561 174.949 142.834 174.971 143.124 175.077C143.415 175.183 143.643 175.343 143.81 175.556C143.979 175.777 144.076 176.033 144.1 176.326C144.129 176.62 144.085 176.928 143.968 177.249C143.846 177.584 143.672 177.859 143.447 178.072C143.227 178.287 142.975 178.425 142.692 178.487C142.408 178.548 142.116 178.524 141.816 178.415L141.665 178.36C141.64 178.351 141.621 178.333 141.609 178.305C141.599 178.285 141.599 178.262 141.608 178.237L141.923 177.372C141.932 177.347 141.947 177.328 141.97 177.313C141.995 177.305 142.021 177.306 142.046 177.315L142.181 177.364C142.361 177.43 142.535 177.422 142.7 177.341C142.866 177.259 142.989 177.111 143.067 176.895C143.133 176.715 143.137 176.554 143.08 176.415C143.026 176.282 142.917 176.185 142.751 176.125C142.636 176.083 142.525 176.076 142.418 176.105C142.311 176.135 142.194 176.197 142.069 176.293C141.948 176.391 141.778 176.545 141.56 176.755L141.412 176.88C141.146 177.113 140.924 177.287 140.745 177.404C140.57 177.527 140.372 177.611 140.151 177.656C139.93 177.7 139.692 177.676 139.437 177.583C138.981 177.417 138.674 177.129 138.516 176.72C138.362 176.318 138.378 175.861 138.564 175.35Z" fill="#B5B8C9"/>
</svg>
